<?xml version="1.0" encoding="UTF-8"?>
<svg version="1.1" xmlns="http://www.w3.org/2000/svg" width="500" height="500">
<path d="M0 0 C1.34337111 -0.00543404 2.68673625 -0.01256384 4.03009033 -0.02124023 C7.64591614 -0.0393247 11.26128047 -0.03246856 14.87711334 -0.01972389 C18.68094526 -0.00951825 22.48474057 -0.01901038 26.28857422 -0.02526855 C32.67357394 -0.03252314 39.05838792 -0.02301511 45.44335938 -0.00390625 C52.80017166 0.01785841 60.15654035 0.01080547 67.5133419 -0.01121187 C73.85682123 -0.02942865 80.20016787 -0.0318937 86.54366493 -0.0214572 C90.32050459 -0.01525657 94.09713651 -0.01429103 97.8739624 -0.02760315 C101.42666897 -0.03925315 104.97880983 -0.03097181 108.53145599 -0.00802612 C110.43887071 -0.00031048 112.34633391 -0.01201641 114.25372314 -0.02453613 C124.41777996 0.07426222 133.87120156 1.9866999 141.38671875 9.27539062 C145.4950378 14.19851199 148.31774527 19.85772044 151.2578125 25.51757812 C151.75023437 26.45714355 152.24265625 27.39670898 152.75 28.36474609 C156.32681512 35.19428094 159.86573816 42.04303178 163.39355469 48.89794922 C166.4199542 54.77720618 169.46411446 60.64726168 172.5078125 66.51757812 C173.38771851 68.21539429 173.38771851 68.21539429 174.28540039 69.94750977 C177.99780526 77.10524377 181.73647409 84.24845906 185.50097656 91.37890625 C188.94685195 97.9111851 192.35436123 104.46311178 195.7578125 111.01757812 C199.61453184 118.44396341 203.48108004 125.86473402 207.3828125 133.26757812 C207.97050415 134.38326172 207.97050415 134.38326172 208.57006836 135.52148438 C210.29135668 138.78844093 212.01351354 142.05493344 213.73779297 145.3203125 C215.26739472 148.21830205 216.79405026 151.11782868 218.3203125 154.01757812 C218.79807129 154.92088867 219.27583008 155.82419922 219.76806641 156.75488281 C220.20940918 157.59438477 220.65075195 158.43388672 221.10546875 159.29882812 C221.49742432 160.04197266 221.88937988 160.78511719 222.29321289 161.55078125 C223.87923274 164.78464 224.390345 167.40146436 224.43481445 170.95385742 C224.44764969 171.84876389 224.46048492 172.74367035 224.47370911 173.66569519 C224.48478951 175.11411552 224.48478951 175.11411552 224.49609375 176.59179688 C224.5041655 177.58959671 224.51223724 178.58739655 224.52055359 179.61543274 C224.53438859 181.72952541 224.54511335 183.84364036 224.55297852 185.95776367 C224.5701541 189.17540443 224.61404173 192.39200763 224.65820312 195.609375 C224.66833373 197.66600809 224.67684868 199.7226499 224.68359375 201.77929688 C224.70110184 202.73478928 224.71860992 203.69028168 224.73664856 204.67472839 C224.71766304 210.5845177 224.11564548 215.81362165 220.2578125 220.51757812 C214.60319482 225.64250227 208.85500449 225.07946354 201.50415039 225.0255127 C200.20468759 225.03175266 198.90522478 225.03799262 197.56638432 225.04442167 C193.96568267 225.06110971 190.36540544 225.05287132 186.76470232 225.0404768 C182.87914698 225.03142637 178.99366462 225.04539598 175.10812378 225.05639648 C167.49881579 225.07418641 159.88966558 225.07033964 152.2803514 225.05874592 C146.09632176 225.04971373 139.91233635 225.04848667 133.728302 225.05284119 C132.8482824 225.05345412 131.96826281 225.05406705 131.06157595 225.05469856 C129.27385353 225.05597745 127.48613112 225.05727431 125.69840872 225.05858892 C108.93346981 225.06999611 92.16861837 225.05687885 75.4036938 225.03538746 C61.01745778 225.01751634 46.63135087 225.02062041 32.24511719 225.0390625 C15.54032357 225.06046677 -1.16439338 225.06889746 -17.8691988 225.05661345 C-19.65035819 225.05533924 -21.43151759 225.05408176 -23.212677 225.05284119 C-24.5272363 225.05191553 -24.5272363 225.05191553 -25.86835235 225.05097118 C-32.04521871 225.04751695 -38.22203644 225.0533482 -44.39889526 225.0627594 C-51.92607618 225.07397584 -59.45309024 225.07094686 -66.98025203 225.04963642 C-70.82103583 225.03912115 -74.66154139 225.03501211 -78.50232315 225.04823303 C-82.664633 225.06234409 -86.82623981 225.04549981 -90.98852539 225.0255127 C-92.81215308 225.03889703 -92.81215308 225.03889703 -94.67262173 225.05255175 C-100.97771617 224.99361771 -104.98328634 224.83318172 -109.7421875 220.51757812 C-114.12944105 215.10369664 -114.35700504 208.86317899 -114.34375 202.16601562 C-114.35232025 201.18952057 -114.3608905 200.21302551 -114.36972046 199.2069397 C-114.38115661 197.14791955 -114.38224484 195.08881864 -114.37353516 193.02978516 C-114.36724582 189.92140269 -114.41407221 186.81689277 -114.46484375 183.70898438 C-114.54066359 171.88683974 -113.69136516 162.97202998 -107.7421875 152.51757812 C-107.3596582 151.78313477 -106.97712891 151.04869141 -106.58300781 150.29199219 C-105.62513288 148.48473348 -104.59166467 146.71813988 -103.5546875 144.95507812 C-99.98567842 138.78051585 -96.59838336 132.53079951 -93.3046875 126.20507812 C-92.60593506 124.86328491 -92.60593506 124.86328491 -91.89306641 123.49438477 C-90.95790747 121.69716163 -90.02317071 119.89971876 -89.08886719 118.10205078 C-87.44474872 114.94675018 -85.78539337 111.79967663 -84.1237793 108.65356445 C-77.25480726 95.64731828 -70.5039597 82.57976494 -63.7421875 69.51757812 C-59.08160737 60.51441054 -54.41719097 51.51326599 -49.7421875 42.51757812 C-49.01443115 41.11596436 -49.01443115 41.11596436 -48.27197266 39.68603516 C-45.80406471 34.93898769 -43.32017634 30.20142533 -40.79443359 25.48486328 C-40.11580181 24.21608952 -39.44132666 22.94507946 -38.77197266 21.67138672 C-33.35400412 11.40986401 -27.9786065 5.19496307 -16.88763428 1.33705139 C-11.28788681 -0.12183305 -5.75629456 -0.03778317 0 0 Z M-11.7421875 62.51757812 C-11.7421875 63.17757812 -11.7421875 63.83757812 -11.7421875 64.51757812 C-12.4640625 64.74445313 -13.1859375 64.97132813 -13.9296875 65.20507812 C-17.4466124 66.84630975 -19.39682067 68.41341614 -21.7421875 71.51757812 C-21.68489752 75.26118154 -21.68489752 75.26118154 -20.7421875 78.51757812 C-16.8313473 79.73225104 -12.84913094 79.84530327 -8.7890625 80.04882812 C-8.00045837 80.09036011 -7.21185425 80.13189209 -6.39935303 80.17468262 C3.95180362 80.69052857 14.31235595 80.8667421 24.67333984 81.06982422 C34.13962679 81.25932381 43.54864064 81.54613684 52.99121094 82.28613281 C58.66173387 82.6879008 64.32477485 82.82097055 70.0078125 82.89257812 C71.14863281 82.92996094 72.28945313 82.96734375 73.46484375 83.00585938 C84.2520935 83.11732349 91.33336523 79.35559713 99.6953125 72.89257812 C101.17837891 71.75949219 101.17837891 71.75949219 102.69140625 70.60351562 C106.73830506 67.3142554 108.54428817 65.79765818 109.2578125 60.51757812 C104.12807864 56.30386817 99.39413512 56.3293007 92.9284668 56.12866211 C92.0905661 56.09925537 91.25266541 56.06984863 90.38937378 56.03955078 C87.62038426 55.94343861 84.85123167 55.85348495 82.08203125 55.76367188 C80.15394447 55.69818189 78.22586942 55.63234543 76.29780579 55.56617737 C72.2553419 55.42831233 68.21279804 55.29324264 64.17016602 55.16040039 C58.99853172 54.99043581 53.82707199 54.81574229 48.65565777 54.63922024 C43.71450331 54.47074963 38.7732714 54.30460688 33.83203125 54.13867188 C32.89340429 54.10696836 31.95477734 54.07526485 30.98770714 54.04260063 C28.3169591 53.95282628 25.64616196 53.86469886 22.9753418 53.77709961 C21.80224709 53.73737785 21.80224709 53.73737785 20.60545349 53.69685364 C8.2229207 53.29641673 -1.94697225 54.02365958 -11.7421875 62.51757812 Z M104.2578125 80.51757812 C104.2578125 81.17757812 104.2578125 81.83757812 104.2578125 82.51757812 C109.8678125 82.84757812 115.4778125 83.17757812 121.2578125 83.51757812 C121.2578125 84.50757813 121.2578125 85.49757813 121.2578125 86.51757812 C120.484375 86.85789062 120.484375 86.85789062 119.6953125 87.20507812 C116.9844884 88.66475264 114.66125028 90.41253644 112.234375 92.29882812 C107.13432758 95.44352139 102.11178622 95.80787434 96.2578125 95.70507812 C95.59136719 95.70443359 94.92492187 95.70378906 94.23828125 95.703125 C89.79045531 95.66599102 85.38687063 95.38637172 80.953125 95.03710938 C71.68919506 94.34424099 62.4184405 94.20062201 53.1328125 94.01757812 C39.49116684 93.7453558 25.88194746 93.27031295 12.2578125 92.51757812 C12.2578125 91.52757812 12.2578125 90.53757812 12.2578125 89.51757812 C10.80038787 89.43661009 9.34168443 89.37840038 7.8828125 89.33007812 C6.66464844 89.27787109 6.66464844 89.27787109 5.421875 89.22460938 C4.70773438 89.32128906 3.99359375 89.41796875 3.2578125 89.51757812 C1.05405242 92.19443161 1.05405242 92.19443161 1.3203125 94.51757812 C2.67468652 97.40690937 4.43473343 98.1003663 7.2578125 99.51757812 C10.04301668 100.01332799 10.04301668 100.01332799 13.03173828 100.02587891 C14.1712796 100.06246613 15.31082092 100.09905334 16.4848938 100.13674927 C18.32541824 100.17443924 18.32541824 100.17443924 20.203125 100.21289062 C22.1599325 100.27065713 24.11673996 100.32842487 26.07354546 100.38625908 C28.81796027 100.4636792 31.56263024 100.52785345 34.30737305 100.59240723 C37.70646036 100.67457549 41.10516808 100.76984812 44.50390625 100.86523438 C45.16557108 100.88378951 45.82723591 100.90234465 46.50895119 100.92146206 C47.16693388 100.93992215 47.82491657 100.95838224 48.50283813 100.97740173 C51.12647047 101.05078431 53.75014873 101.12254355 56.37387085 101.19264221 C65.08407582 101.43141698 73.77628689 101.80666268 82.47509766 102.30371094 C99.27351561 103.25346014 109.00400235 102.85016075 122.73046875 92.39648438 C124.74731844 90.89709535 126.69504194 89.66700858 128.8828125 88.45507812 C131.60759892 86.61385059 131.60759892 86.61385059 132.2578125 82.89257812 C132.2578125 81.77882813 132.2578125 80.66507812 132.2578125 79.51757812 C129.50244198 76.7622076 126.6531542 76.82380471 122.9453125 76.39257812 C122.28080078 76.30621094 121.61628906 76.21984375 120.93164062 76.13085938 C112.98766559 75.14080907 109.99591931 74.91291566 104.2578125 80.51757812 Z M-102.7421875 165.51757812 C-103.0721875 166.50757813 -103.4021875 167.49757813 -103.7421875 168.51757812 C-102.66211426 168.53216064 -101.58204102 168.54674316 -100.46923828 168.56176758 C-96.46954912 168.61965359 -92.47042874 168.69688586 -88.47119141 168.7800293 C-86.73886329 168.81332456 -85.0064255 168.8413421 -83.27392578 168.86401367 C-80.78630743 168.8974762 -78.29969846 168.94978471 -75.8125 169.00585938 C-74.64679977 169.01544426 -74.64679977 169.01544426 -73.45755005 169.02522278 C-71.27392578 169.08520508 -71.27392578 169.08520508 -67.7421875 169.51757812 C-65.7421875 172.51757812 -65.7421875 172.51757812 -65.7421875 177.51757812 C-84.5521875 178.01257813 -84.5521875 178.01257813 -103.7421875 178.51757812 C-103.7421875 180.49757813 -103.7421875 182.47757813 -103.7421875 184.51757812 C-103.09516876 184.52566498 -102.44815002 184.53375183 -101.78152466 184.54208374 C-95.06589622 184.62793684 -88.35056954 184.72743127 -81.63525391 184.83496094 C-79.12684179 184.87331686 -76.61837342 184.90815787 -74.10986328 184.93945312 C-70.51053721 184.98496021 -66.91160067 185.04297813 -63.3125 185.10351562 C-61.62182907 185.12084244 -61.62182907 185.12084244 -59.89700317 185.13851929 C-58.33561111 185.16832382 -58.33561111 185.16832382 -56.74267578 185.19873047 C-55.36367599 185.21871597 -55.36367599 185.21871597 -53.95681763 185.23910522 C-51.7421875 185.51757812 -51.7421875 185.51757812 -49.7421875 187.51757812 C-49.9921875 190.08007812 -49.9921875 190.08007812 -50.7421875 192.51757812 C-53.20642646 193.74969761 -54.89453413 193.6753772 -57.65087891 193.72290039 C-58.67178619 193.74284561 -59.69269348 193.76279083 -60.74453735 193.78334045 C-61.84977753 193.80005295 -62.9550177 193.81676544 -64.09375 193.83398438 C-65.2229184 193.85476547 -66.35208679 193.87554657 -67.51547241 193.8969574 C-71.13264722 193.96249148 -74.74989631 194.02135587 -78.3671875 194.08007812 C-80.81511194 194.12325967 -83.26302878 194.16687383 -85.7109375 194.2109375 C-91.721275 194.31817679 -97.73168685 194.41993599 -103.7421875 194.51757812 C-103.7421875 196.16757812 -103.7421875 197.81757813 -103.7421875 199.51757812 C-102.17537231 199.5394519 -102.17537231 199.5394519 -100.5769043 199.56176758 C-96.70204405 199.61973364 -92.82776599 199.69696587 -88.95336914 199.7800293 C-87.27638191 199.81328676 -85.59928253 199.8413162 -83.92211914 199.86401367 C-81.51139525 199.89754549 -79.10169988 199.94985791 -76.69140625 200.00585938 C-75.94130783 200.0122493 -75.19120941 200.01863922 -74.41838074 200.02522278 C-69.25430313 200.17114514 -69.25430313 200.17114514 -66.72583008 201.8815918 C-65.7421875 203.51757812 -65.7421875 203.51757812 -66.0546875 206.20507812 C-66.2815625 206.96820313 -66.5084375 207.73132813 -66.7421875 208.51757812 C-71.15119252 209.34684881 -75.40821757 209.69989526 -79.890625 209.83398438 C-80.54801666 209.85476547 -81.20540833 209.87554657 -81.88272095 209.8969574 C-83.96078112 209.96178565 -86.03895606 210.02102376 -88.1171875 210.08007812 C-89.53516761 210.123327 -90.95313657 210.16694321 -92.37109375 210.2109375 C-95.8280063 210.3173973 -99.28504456 210.41884796 -102.7421875 210.51757812 C-102.7421875 211.50757813 -102.7421875 212.49757813 -102.7421875 213.51757812 C-99.41952529 215.73268626 -98.40778853 215.76792286 -94.54003906 215.76926041 C-93.45606339 215.7744759 -92.37208771 215.7796914 -91.25526428 215.78506494 C-89.46215065 215.77837277 -89.46215065 215.77837277 -87.6328125 215.77154541 C-86.36646469 215.77466539 -85.10011688 215.77778537 -83.7953949 215.7809999 C-80.2734411 215.78937406 -76.75159523 215.7852108 -73.22964096 215.77902746 C-69.43409227 215.77451465 -65.63856254 215.78148089 -61.84301758 215.7869873 C-54.40479229 215.79589551 -46.96660728 215.79395296 -39.52838039 215.78816202 C-33.48489996 215.78365114 -27.44143085 215.78303014 -21.39794922 215.78520966 C-20.53885987 215.78551612 -19.67977053 215.78582259 -18.79464817 215.78613834 C-17.04959996 215.78677777 -15.30455176 215.7874262 -13.55950356 215.78808352 C2.81616125 215.793791 19.19180369 215.78722239 35.56746483 215.77648279 C49.62832109 215.7675469 63.68914433 215.76909883 77.75 215.77832031 C94.06578617 215.78901558 110.38155273 215.79324164 126.69734192 215.78709579 C128.43608602 215.78645867 130.17483012 215.78582992 131.91357422 215.78520966 C132.7691413 215.7849011 133.62470839 215.78459255 134.50620174 215.78427465 C140.54466662 215.78254548 146.58311908 215.78546759 152.62158203 215.79016876 C159.97723164 215.79576935 167.33283854 215.79427852 174.68848324 215.78360727 C178.44374378 215.77833944 182.19893305 215.77631263 185.95419312 215.78290558 C190.01900371 215.78993423 194.08363324 215.78156013 198.1484375 215.77154541 C199.34384659 215.77600685 200.53925568 215.7804683 201.77088928 215.78506494 C202.85486496 215.77984944 203.93884064 215.77463395 205.05566406 215.76926041 C205.9946051 215.7689357 206.93354614 215.768611 207.90093994 215.76827645 C210.52668353 215.67313898 210.52668353 215.67313898 213.2578125 213.51757812 C213.2578125 212.52757812 213.2578125 211.53757812 213.2578125 210.51757812 C212.45150391 210.49252197 211.64519531 210.46746582 210.81445312 210.44165039 C207.12877375 210.32495132 203.44330398 210.20256222 199.7578125 210.08007812 C197.85515625 210.02110352 197.85515625 210.02110352 195.9140625 209.9609375 C189.63498336 209.74836451 183.47297669 209.45142224 177.2578125 208.51757812 C176.9278125 206.20757812 176.5978125 203.89757812 176.2578125 201.51757812 C180.13743999 200.28434812 184.0546598 200.29434864 188.0859375 200.20117188 C189.20944611 200.17000023 189.20944611 200.17000023 190.35565186 200.13819885 C192.73961538 200.07300725 195.12368562 200.01396029 197.5078125 199.95507812 C199.12761504 199.91186397 200.74740693 199.86824876 202.3671875 199.82421875 C206.33062082 199.71735716 210.2941611 199.61600479 214.2578125 199.51757812 C214.2578125 197.86757813 214.2578125 196.21757812 214.2578125 194.51757812 C213.62554245 194.51171188 212.9932724 194.50584564 212.34184265 194.49980164 C205.77194958 194.43595826 199.2025505 194.35156231 192.63305664 194.25512695 C190.17999781 194.22183486 187.72686159 194.19381643 185.27368164 194.17114258 C181.75112872 194.13767583 178.22928785 194.08536298 174.70703125 194.02929688 C173.60695236 194.02290695 172.50687347 194.01651703 171.37345886 194.00993347 C170.35262711 193.99013931 169.33179535 193.97034515 168.2800293 193.94995117 C167.38068161 193.93884811 166.48133392 193.92774506 165.55473328 193.91630554 C162.82095996 193.44174395 161.87873273 192.74131696 160.2578125 190.51757812 C160.50927829 188.38011891 160.71707029 187.05832033 162.2578125 185.51757812 C163.88360468 185.3947586 165.51458254 185.33975309 167.14477539 185.31225586 C168.70628075 185.28233803 168.70628075 185.28233803 170.29933167 185.2518158 C171.4316069 185.2351033 172.56388214 185.21839081 173.73046875 185.20117188 C174.88324814 185.18039078 176.03602753 185.15960968 177.22373962 185.13819885 C180.92253407 185.07257849 184.62140209 185.01376057 188.3203125 184.95507812 C190.82097129 184.91190477 193.32162251 184.86829089 195.82226562 184.82421875 C201.96736912 184.71688445 208.11254654 184.6151417 214.2578125 184.51757812 C214.2578125 182.53757812 214.2578125 180.55757812 214.2578125 178.51757812 C195.4478125 178.02257812 195.4478125 178.02257812 176.2578125 177.51757812 C176.5878125 175.20757812 176.9178125 172.89757812 177.2578125 170.51757812 C180.36772646 168.96262114 183.69125299 169.27680856 187.109375 169.20117188 C188.27042252 169.17000023 188.27042252 169.17000023 189.45492554 169.13819885 C191.93079642 169.07274365 194.40677452 169.01383726 196.8828125 168.95507812 C198.55990698 168.91188906 200.23699057 168.86827464 201.9140625 168.82421875 C206.02853558 168.71706642 210.14311664 168.61578767 214.2578125 168.51757812 C212.21979115 164.45733492 212.21979115 164.45733492 208.2578125 162.51757812 C206.54845348 162.42388652 204.83564337 162.38845553 203.12372017 162.38615036 C202.05491147 162.38230922 200.98610277 162.37846807 199.88490593 162.37451053 C198.70642488 162.37537701 197.52794382 162.37624349 196.31375122 162.37713623 C195.06514875 162.37416511 193.81654629 162.37119399 192.53010738 162.36813283 C189.0576528 162.36005531 185.58521888 162.35827284 182.11275601 162.35753536 C178.37034121 162.35568614 174.62793716 162.34813952 170.88552856 162.34140015 C162.69968263 162.32781151 154.51384158 162.32179143 146.32798624 162.31738949 C141.2187162 162.31462827 136.10944805 162.31039116 131.00017929 162.30588531 C116.85950146 162.29369253 102.71882514 162.28339286 88.57814217 162.28001022 C87.22030336 162.27968087 87.22030336 162.27968087 85.83503347 162.27934487 C84.92762098 162.27912659 84.02020849 162.27890832 83.08529866 162.27868342 C81.24648166 162.27823995 79.40766466 162.27779339 77.56884766 162.27734375 C76.65672759 162.27712232 75.74460753 162.27690089 74.80484746 162.27667275 C60.01944725 162.27272326 45.23409629 162.25526467 30.44871511 162.23198423 C15.27591752 162.20828619 0.10314465 162.1958091 -15.06967175 162.19464231 C-23.59156864 162.19372473 -32.11340136 162.1879517 -40.63528061 162.16982269 C-47.89060278 162.15444265 -55.14584095 162.14928885 -62.40117632 162.1575608 C-66.10406714 162.16147462 -69.80678869 162.16050223 -73.50965881 162.14650345 C-77.52128192 162.13147584 -81.53252152 162.13960916 -85.54415894 162.15008545 C-86.71817855 162.14202904 -87.89219816 162.13397264 -89.10179412 162.1256721 C-90.71283041 162.13555687 -90.71283041 162.13555687 -92.35641289 162.14564133 C-93.28244344 162.14504424 -94.20847399 162.14444715 -95.16256607 162.14383197 C-98.31984303 162.60127123 -100.19690026 163.61451639 -102.7421875 165.51757812 Z " fill="#F1F1F1" transform="translate(194.7421875,275.482421875)"/>
<path d="M0 0 C0 0.66 0 1.32 0 2 C0.66 2.2475 1.32 2.495 2 2.75 C4.37117108 3.73798795 6.54885876 4.80344013 8.8125 6 C18.70928786 10.93917905 29.81658129 11.66324152 40.35546875 8.20703125 C44.86537768 6.14859423 48.88222794 3.29985639 52.921875 0.44921875 C56 -1 56 -1 59.0859375 -0.41796875 C61.82617241 0.91541633 64.34820333 2.29845342 66.875 4 C68.04675781 4.7734375 68.04675781 4.7734375 69.2421875 5.5625 C69.82226562 6.036875 70.40234375 6.51125 71 7 C71 7.66 71 8.32 71 9 C71.66 9 72.32 9 73 9 C73 9.66 73 10.32 73 11 C73.66 11 74.32 11 75 11 C76.43587438 13.01620694 77.7297534 15.00792234 79 17.125 C79.35578125 17.69476563 79.7115625 18.26453125 80.078125 18.8515625 C83.56538165 24.57690924 85.32043568 29.27085075 85 36 C83.65808594 36.14695312 83.65808594 36.14695312 82.2890625 36.296875 C68.97718036 37.94312055 58.42390258 41.354573 49.625 51.875 C49.16351563 52.47054687 48.70203125 53.06609375 48.2265625 53.6796875 C47.82179688 54.11539063 47.41703125 54.55109375 47 55 C46.34 55 45.68 55 45 55 C44.8659375 55.56460938 44.731875 56.12921875 44.59375 56.7109375 C43.98633549 59.05268027 43.24918018 61.32501686 42.5 63.625 C39.05745575 75.22450871 39.31971057 86.82345675 44.75 97.84375 C50.54112376 107.83343848 58.18843867 114.04962182 69 118 C81.15032457 120.97987235 93.3780571 119.36206781 104.1875 113.17578125 C106.83846539 111.50878388 109.43583386 109.79693533 112 108 C124.36573058 114.08054837 133.71638754 122.83667138 138.57295227 135.97557068 C140.3617722 141.47136786 140.40099406 146.65719116 140.34057617 152.39477539 C140.34101425 153.4982431 140.34145233 154.60171082 140.34190369 155.73861694 C140.3398263 159.35848146 140.31654432 162.97787339 140.29296875 166.59765625 C140.28736908 169.11827847 140.28310073 171.63890398 140.28010559 174.15953064 C140.26985112 180.09856411 140.24624627 186.03744786 140.21605712 191.97640461 C140.1731947 200.59740081 140.15760238 209.21845485 140.13863373 217.83953094 C140.10960492 229.89315921 140.05209677 241.94634997 140 254 C116.57 254 93.14 254 69 254 C69.66 251.69 70.32 249.38 71 247 C71.30133187 244.09317253 71.30133187 244.09317253 71.2746582 241.19165039 C71.28419022 240.09683853 71.29372223 239.00202667 71.30354309 237.8740387 C71.30263168 236.71033249 71.30172028 235.54662628 71.30078125 234.34765625 C71.30720894 232.52650551 71.30720894 232.52650551 71.31376648 230.66856384 C71.31949529 228.10758079 71.32002076 225.54658147 71.31567383 222.9855957 C71.3125136 219.07930617 71.33599356 215.17377417 71.36132812 211.26757812 C71.36360131 208.77343845 71.36430453 206.27929675 71.36328125 203.78515625 C71.372491 202.62347427 71.38170074 201.4617923 71.39118958 200.26490784 C71.33962127 191.17483772 69.46982345 185.08970031 64.50390625 177.5 C62.55591381 174.2617788 60.90964952 170.8913697 59.25 167.5 C56.50041772 161.89485582 53.60283345 156.41746592 50.5 151 C47.26568663 145.3349931 44.24391691 139.60938793 41.36230469 133.75805664 C35.76003312 122.41197393 29.84433215 111.22260139 24 100 C23.45730469 98.95730957 22.91460937 97.91461914 22.35546875 96.84033203 C16.83919425 86.24408886 11.31148524 75.65388668 5.73095703 65.09130859 C3.49044563 60.84779265 1.2713836 56.59426874 -0.92578125 52.328125 C-1.41747803 51.37760254 -1.9091748 50.42708008 -2.41577148 49.44775391 C-3.36382435 47.61382597 -4.30759574 45.7776761 -5.24633789 43.93896484 C-7.51184968 39.56689488 -9.84105011 35.80543266 -13 32 C-13 31.34 -13 30.68 -13 30 C-13.84304688 29.59201172 -13.84304688 29.59201172 -14.703125 29.17578125 C-17.12210608 27.93749332 -19.4394319 26.61839103 -21.75 25.1875 C-22.94882812 24.46626953 -22.94882812 24.46626953 -24.171875 23.73046875 C-26 22 -26 22 -26.578125 19.67578125 C-25.76349519 15.90536624 -23.60403132 13.69466182 -21 11 C-20.50177734 10.47108154 -20.00355469 9.94216309 -19.49023438 9.3972168 C-14.38731632 4.12152664 -7.78388052 -2.41568706 0 0 Z " fill="#F5F5F5" transform="translate(360,246)"/>
<path d="M0 0 C0.7940625 0.46664062 1.588125 0.93328125 2.40625 1.4140625 C3.95488068 2.3735402 5.48419379 3.36446253 7 4.375 C16.66082087 9.5588551 27.75250246 10.22218403 38.32421875 7.59375 C42.00293097 6.20701032 45.21603101 4.13783105 48.49609375 1.9921875 C50.5625 0.75 50.5625 0.75 52.5625 0.75 C52.5625 0.09 52.5625 -0.57 52.5625 -1.25 C55.61513664 -2.23120464 57.50986336 -2.23120464 60.5625 -1.25 C60.5625 -0.59 60.5625 0.07 60.5625 0.75 C61.14386719 0.853125 61.72523438 0.95625 62.32421875 1.0625 C69.35038485 3.22062432 76.02985824 11.57087068 79.5625 17.75 C78.35466249 21.37351253 77.26596858 21.90215236 74.125 23.9375 C73.32191406 24.46730469 72.51882812 24.99710937 71.69140625 25.54296875 C69.5625 26.75 69.5625 26.75 67.5625 26.75 C67.5625 27.41 67.5625 28.07 67.5625 28.75 C66.9025 28.75 66.2425 28.75 65.5625 28.75 C65.28664062 29.32234375 65.01078125 29.8946875 64.7265625 30.484375 C63.5674757 32.74031575 62.28280268 34.85052198 60.9375 37 C58.05724031 41.77516739 55.54093926 46.68696534 53.07861328 51.68432617 C49.74187339 58.43827395 46.2850473 65.12750545 42.8125 71.8125 C42.20801025 72.97628174 41.60352051 74.14006348 40.98071289 75.33911133 C36.67308138 83.62504472 32.35762345 91.90691947 28.03222656 100.18359375 C25.46051549 105.10546358 22.89740303 110.03155476 20.34765625 114.96484375 C13.68343627 127.84873777 6.85670408 140.62822452 -0.12109375 153.34472656 C-17.23943965 184.62253514 -26.6926635 216.85692774 -16.4375 252.75 C-39.8675 252.75 -63.2975 252.75 -87.4375 252.75 C-87.55782643 225.19970452 -87.55782643 225.19970452 -87.58398438 213.42578125 C-87.60189438 205.40244108 -87.62304702 197.37921776 -87.66381836 189.35595703 C-87.69649435 182.88501229 -87.71437052 176.4141781 -87.72213173 169.9431572 C-87.72766041 167.47850175 -87.73845652 165.01385212 -87.75469017 162.54924393 C-87.7765735 159.08819916 -87.77946231 155.62760709 -87.77807617 152.16650391 C-87.788862 151.15517395 -87.79964783 150.14384399 -87.8107605 149.10186768 C-87.75674083 136.57761496 -83.6077667 126.42000731 -75.07421875 117.1953125 C-64.40998082 107.07838383 -64.40998082 107.07838383 -58.4375 106.75 C-55.65074835 108.12975977 -53.44348796 109.84510012 -51.015625 111.78515625 C-42.23810563 118.47468995 -31.99311805 118.62782861 -21.4375 117.75 C-10.98652944 116.06391008 -1.96644832 109.95633659 4.25 101.4375 C4.8996875 100.6021875 4.8996875 100.6021875 5.5625 99.75 C6.2225 99.75 6.8825 99.75 7.5625 99.75 C7.69527344 99.17507813 7.82804687 98.60015625 7.96484375 98.0078125 C8.5625 95.75 8.5625 95.75 9.31640625 93.8046875 C13.0580596 83.71849152 13.39530024 70.08500912 9.66796875 59.91796875 C3.54366981 47.90741783 -6.35695396 41.61406214 -18.375 36.5 C-23.00693918 35.36564755 -27.68813652 35.07113134 -32.4375 34.75 C-32.12924851 25.50245531 -28.55839717 16.79070412 -22.4375 9.75 C-21.7775 9.75 -21.1175 9.75 -20.4375 9.75 C-20.4375 9.09 -20.4375 8.43 -20.4375 7.75 C-19.7775 7.75 -19.1175 7.75 -18.4375 7.75 C-18.4375 7.09 -18.4375 6.43 -18.4375 5.75 C-16.390625 4.05859375 -16.390625 4.05859375 -13.6875 2.1875 C-12.80578125 1.56746094 -11.9240625 0.94742188 -11.015625 0.30859375 C-6.48368435 -2.43117037 -4.58933717 -2.76791912 0 0 Z " fill="#F5F5F5" transform="translate(87.4375,247.25)"/>
<path d="M0 0 C2.2539844 1.35158131 4.3098359 2.87304009 6.42578125 4.4296875 C13.00493461 8.44307089 19.10415164 9.55651088 26.75 9.5 C28.06508545 9.49359497 28.06508545 9.49359497 29.40673828 9.48706055 C38.20222623 9.25756367 45.75679181 7.15229675 52.375 1.125 C55 -1 55 -1 57.8125 -1.1875 C67.85985831 2.55563349 75.6995637 10.46038402 81.375 19.4375 C86.33757231 30.31698546 87.16574737 41.48931575 87.09765625 53.28515625 C87.0962413 54.22685165 87.09482635 55.16854706 87.09336853 56.13877869 C87.08782122 59.11338632 87.07527887 62.08791555 87.0625 65.0625 C87.05747818 67.09309786 87.05291647 69.12369692 87.04882812 71.15429688 C87.03786912 76.10289428 87.02064152 81.0514339 87 86 C84.58694566 87.20652717 83.06514057 87.13101786 80.36914062 87.14044189 C79.39323975 87.14615204 78.41733887 87.15186218 77.41186523 87.15774536 C76.33751221 87.15886322 75.26315918 87.15998108 74.15625 87.16113281 C72.46350952 87.16858017 72.46350952 87.16858017 70.73657227 87.17617798 C66.99104206 87.19082385 63.24555417 87.19760475 59.5 87.203125 C56.90690102 87.20887331 54.31380206 87.21463108 51.72070312 87.22039795 C46.97597689 87.22956875 42.23126769 87.23586704 37.48653412 87.2388947 C30.49542657 87.24338003 23.50451409 87.26095043 16.51346588 87.2898953 C10.4639608 87.31407582 4.41454838 87.32183694 -1.63500977 87.32357025 C-4.21233178 87.32660753 -6.78965276 87.33467189 -9.36694336 87.34775543 C-12.96353155 87.36471374 -16.55963863 87.36296091 -20.15625 87.35644531 C-21.23060303 87.3656601 -22.30495605 87.37487488 -23.41186523 87.3843689 C-24.38776611 87.37879974 -25.36366699 87.37323059 -26.36914062 87.36749268 C-27.64561462 87.36969252 -27.64561462 87.36969252 -28.94787598 87.3719368 C-29.6250769 87.24919765 -30.30227783 87.12645851 -31 87 C-33.41532945 83.37700582 -33.28888672 80.72086864 -33.265625 76.53515625 C-33.26853546 75.79394028 -33.27144592 75.0527243 -33.27444458 74.28904724 C-33.27893771 71.87999175 -33.26639464 69.47149908 -33.25 67.0625 C-33.24623352 66.24587891 -33.24246704 65.42925781 -33.23858643 64.58789062 C-33.01448112 23.40930162 -33.01448112 23.40930162 -17.66015625 7.4296875 C-6.990591 -2.31549544 -6.990591 -2.31549544 0 0 Z " fill="#F4F4F4" transform="translate(223,176)"/>
<path d="M0 0 C0.6555991 -0.00235223 1.3111982 -0.00470446 1.98666394 -0.00712797 C4.20487202 -0.01383641 6.42302177 -0.0133592 8.64123917 -0.01294994 C10.23911258 -0.01624742 11.83698515 -0.01997274 13.43485665 -0.02409142 C17.84256617 -0.03413274 22.25026206 -0.03783163 26.6579814 -0.04048073 C31.40521419 -0.04437747 36.15243613 -0.05395622 40.89966202 -0.0626936 C52.37244352 -0.08247572 63.84522593 -0.09252636 75.31802022 -0.10142139 C80.71663621 -0.10580137 86.11525122 -0.11116892 91.51386642 -0.11641026 C109.45299832 -0.13342417 127.39212959 -0.14791931 145.33126831 -0.155159 C149.9888115 -0.15706899 154.64635469 -0.15898931 159.30389786 -0.16094494 C160.46155152 -0.16142868 161.61920519 -0.16191242 162.81193927 -0.16241082 C181.573649 -0.17071469 200.33529505 -0.19605692 219.09697697 -0.22852562 C238.34570178 -0.26156644 257.59439419 -0.27960506 276.84314752 -0.28280324 C287.65609067 -0.28497108 298.46894096 -0.29375978 309.28185654 -0.31926441 C318.48894248 -0.34093077 327.695913 -0.3490419 336.90302154 -0.33929763 C341.60248736 -0.33474113 346.30171483 -0.33671729 351.00114822 -0.35605907 C355.30190181 -0.37360747 359.60224172 -0.37276117 363.90299919 -0.35716178 C365.46024139 -0.35477299 367.01751161 -0.35917474 368.57471082 -0.37099043 C370.6899401 -0.38604831 372.80369195 -0.37648159 374.91888428 -0.36076355 C376.09417372 -0.36174036 377.26946315 -0.36271717 378.48036742 -0.36372358 C382.43520724 0.24582129 384.597821 1.66428961 387.71112442 4.13422108 C391.33027112 9.37574389 391.85971502 13.10457997 391.85829544 19.36923695 C391.86197213 20.23101437 391.86564882 21.09279179 391.86943692 21.98068368 C391.88050216 24.88554713 391.88432243 27.79037484 391.88812637 30.69525623 C391.89438896 32.77121565 391.90103558 34.84717394 391.90803909 36.92313099 C391.92546978 42.57625808 391.93600685 48.22937669 391.94424462 53.88252401 C391.94939122 57.41336846 391.95546716 60.94421025 391.96175575 64.47505283 C391.98081503 75.51899202 391.99504366 86.56292449 392.00336772 97.60687697 C392.01313878 110.36078964 392.03945193 123.1145287 392.07986861 135.86838019 C392.11002265 145.72154407 392.12483599 155.57465817 392.12814873 165.42786729 C392.13050036 171.31464829 392.1394753 177.20124396 392.16460991 183.0879755 C392.18788249 188.6283542 392.19212698 194.16842547 392.18184853 199.70884037 C392.18135283 201.74053946 392.18768307 203.77225363 392.20140457 205.80390644 C392.21911529 208.58207309 392.21202123 211.35913553 392.19887161 214.13730335 C392.21532548 215.33762445 392.21532548 215.33762445 392.23211175 216.56219447 C392.16910161 222.09281439 390.96120085 226.58200419 387.71112442 231.13422108 C382.28079002 235.60946608 376.32496467 236.27611882 369.52362442 236.25922108 C367.95547989 236.26308826 367.95547989 236.26308826 366.35565567 236.26703358 C363.71112442 236.13422108 363.71112442 236.13422108 361.71112442 235.13422108 C362.18663003 233.65387344 362.66663658 232.17497087 363.14862442 230.69672108 C363.41546036 229.87301014 363.6822963 229.0492992 363.95721817 228.20062733 C364.71112442 226.13422108 364.71112442 226.13422108 365.71112442 225.13422108 C369.04059535 224.84883785 372.3701007 224.68529475 375.70721817 224.51312733 C378.82200396 224.43204554 378.82200396 224.43204554 380.71112442 222.13422108 C381.01172385 219.76912747 381.20627454 217.38980226 381.33612442 215.00922108 C381.44827286 213.08722889 381.44827286 213.08722889 381.56268692 211.12640858 C381.6116713 210.1389867 381.66065567 209.15156483 381.71112442 208.13422108 C380.65151505 208.1574242 379.59190567 208.18062733 378.50018692 208.20453358 C377.11217312 208.22329052 375.72415172 208.2414908 374.33612442 208.25922108 C373.63745255 208.27597889 372.93878067 208.2927367 372.21893692 208.31000233 C370.38214956 208.32766374 368.54510479 208.23725368 366.71112442 208.13422108 C364.11630313 205.53939979 364.0112214 203.73538483 363.71112442 200.13422108 C365.71112442 198.13422108 365.71112442 198.13422108 369.40643692 197.93890858 C370.8831255 197.95221208 372.359748 197.97607273 373.83612442 198.00922108 C374.59022598 198.01824451 375.34432755 198.02726795 376.12128067 198.03656483 C377.98469696 198.06015237 379.84795035 198.09602389 381.71112442 198.13422108 C381.65067129 173.91729827 381.57322939 149.70048179 381.47540951 125.48367977 C381.43039149 114.24008717 381.39099081 102.99652667 381.36468887 91.75287342 C381.34175731 81.95603113 381.30841388 72.15928992 381.26242286 62.36252773 C381.23842509 57.17237735 381.21973939 51.98232749 381.21351051 46.79212284 C381.20748916 41.91166606 381.18759712 37.03146667 381.15684891 32.15110493 C381.1480211 30.35557431 381.14435582 28.56001011 381.14611626 26.76445866 C381.14775597 24.3213403 381.1311829 21.87901893 381.10985184 19.43600941 C381.11469941 18.71811871 381.11954699 18.00022801 381.12454146 17.26058304 C381.12812277 15.0829942 381.12812277 15.0829942 380.71112442 12.13422108 C377.14509823 9.75687029 375.62963816 9.88372845 371.39734936 9.8825388 C370.42815029 9.87817847 370.42815029 9.87817847 369.43937144 9.87373006 C367.25934961 9.86639124 365.07960582 9.87339129 362.89958572 9.88025379 C361.32687153 9.87795089 359.75415842 9.87477552 358.18144757 9.8707993 C353.84805815 9.86241924 349.51475637 9.86659107 345.18136656 9.87277174 C340.51261961 9.87728211 335.84388811 9.87031955 331.1751442 9.8648119 C322.02474009 9.85590128 312.87436872 9.85784726 303.72396331 9.86363718 C296.29031451 9.86814684 288.85667491 9.8687696 281.42302513 9.86658955 C280.36659641 9.86628308 279.3101677 9.86597661 278.22172599 9.86566086 C276.07588505 9.86502144 273.93004411 9.86437301 271.78420318 9.86371568 C251.6454076 9.85800757 231.50663021 9.86457796 211.36783762 9.87531641 C194.07120601 9.88425365 176.77460124 9.88269938 159.47797012 9.87347889 C139.41159102 9.86278697 119.34522787 9.85855557 99.27884632 9.86470342 C97.14103353 9.86534054 95.00322074 9.86596928 92.86540794 9.86658955 C91.28746851 9.86705237 91.28746851 9.86705237 89.67765151 9.86752455 C82.24860891 9.86925463 74.81957639 9.86632968 67.39053535 9.86163044 C58.3433097 9.85603362 49.29611878 9.85751274 40.24889713 9.86819193 C35.62897616 9.87346467 31.00911318 9.87547827 26.38919258 9.86889362 C22.16588498 9.86296508 17.94268951 9.86615762 13.71939219 9.87684873 C12.18581018 9.87909597 10.65221882 9.87791712 9.11864274 9.87309715 C7.04531034 9.86707704 4.97236974 9.87319016 2.89905834 9.8825388 C1.74405643 9.8828635 0.58905453 9.8831882 -0.60094744 9.88352275 C-3.44009282 9.85984796 -3.44009282 9.85984796 -5.28887558 12.13422108 C-5.49404909 14.60443307 -5.57401081 16.96392721 -5.56734848 19.43600941 C-5.57314088 20.197259 -5.57893328 20.95850858 -5.58490121 21.74282634 C-5.60197786 24.30709002 -5.60478425 26.87117456 -5.60772324 29.43549061 C-5.61701614 31.26827916 -5.62718384 33.10106345 -5.63816452 34.93384266 C-5.66555057 39.92115942 -5.68063933 44.90844781 -5.69359255 49.89582014 C-5.70918557 55.10356541 -5.7359879 60.31125241 -5.76162338 65.51895618 C-5.80847918 75.38575622 -5.8451903 85.25256714 -5.87829626 95.11942184 C-5.91646969 106.35024575 -5.9658923 117.58101122 -6.01628041 128.81178594 C-6.11970138 151.91922105 -6.20892863 175.02669367 -6.28887558 198.13422108 C-4.59118027 198.11681873 -4.59118027 198.11681873 -2.85918808 198.09906483 C-1.37741889 198.08968654 0.10435207 198.08058638 1.58612442 198.07172108 C2.33249161 198.06334217 3.0788588 198.05496326 3.84784317 198.04633045 C9.48456192 198.02093983 9.48456192 198.02093983 11.71112442 199.13422108 C10.96112442 205.88422108 10.96112442 205.88422108 8.71112442 208.13422108 C6.13048313 208.27920092 3.66168558 208.32099653 1.08612442 208.25922108 C0.37971817 208.25019764 -0.32668808 208.2411742 -1.05450058 208.23187733 C-2.79943656 208.20829711 -4.54419853 208.17242568 -6.28887558 208.13422108 C-6.17516061 210.42647543 -6.04756594 212.71804496 -5.91387558 215.00922108 C-5.8442662 216.28539295 -5.77465683 217.56156483 -5.70293808 218.87640858 C-5.61646452 222.21483807 -5.61646452 222.21483807 -3.28887558 224.13422108 C-1.16569494 224.23150968 0.96072133 224.26399726 3.08612442 224.25922108 C9.18696437 224.60302532 9.18696437 224.60302532 11.45721817 226.90375233 C12.82238109 229.67908354 13.71112442 232.02663985 13.71112442 235.13422108 C5.16486382 236.33654671 -2.07041489 236.17622743 -10.16387558 233.00922108 C-13.71080556 229.87957697 -15.84611314 225.68317348 -16.65777862 221.01047206 C-16.7977681 218.71953784 -16.81772281 216.45926563 -16.79008102 214.16421986 C-16.79561542 213.29590475 -16.80114982 212.42758965 -16.80685192 211.53296196 C-16.82039647 208.64177634 -16.80552311 205.75146328 -16.79058456 202.8602953 C-16.79436993 200.78020328 -16.79987177 198.70011379 -16.80695724 196.6200304 C-16.82089884 190.98380982 -16.80975177 185.34789494 -16.79324603 179.71169138 C-16.77938047 173.81014334 -16.78585719 167.90861278 -16.78937912 162.00705433 C-16.79207962 152.09936065 -16.77861788 142.19178824 -16.75542831 132.28412342 C-16.72880498 120.8301124 -16.72707678 109.37630393 -16.73881668 97.92227256 C-16.74959495 86.89967595 -16.74340792 75.8771526 -16.7292614 64.85456181 C-16.72350353 60.16489524 -16.7235827 55.47528232 -16.7283268 50.78561497 C-16.73309848 45.26486399 -16.72298677 39.74433491 -16.70137215 34.22362614 C-16.6958073 32.19755012 -16.69533621 30.17145277 -16.70032501 28.14537525 C-16.7062802 25.38008886 -16.6937682 22.61548035 -16.67655563 19.85025501 C-16.68256568 19.04830798 -16.68857572 18.24636095 -16.69476789 17.42011249 C-16.64018501 12.59885408 -15.9247242 9.32305553 -13.28887558 5.13422108 C-8.64603837 0.9443436 -6.18943276 0.00942436 0 0 Z " fill="#D0D0D0" transform="translate(62.288875579833984,-0.13422107696533203)"/>
<path d="M0 0 C3.35055433 2.55203253 6.68783928 5.18728287 9.48828125 8.34765625 C9.48828125 9.00765625 9.48828125 9.66765625 9.48828125 10.34765625 C10.14828125 10.34765625 10.80828125 10.34765625 11.48828125 10.34765625 C17.28351409 22.5007659 19.06800191 32.35360757 14.48828125 45.34765625 C12.17857032 50.54450585 10.62634608 53.80499994 5.48828125 56.34765625 C5.15828125 57.33765625 4.82828125 58.32765625 4.48828125 59.34765625 C-3.77453257 66.08140844 -12.04501043 67.7837691 -22.51171875 67.34765625 C-27.78115975 66.75758864 -32.68728495 65.59905869 -37.51171875 63.34765625 C-37.51171875 62.68765625 -37.51171875 62.02765625 -37.51171875 61.34765625 C-38.62353516 60.98027344 -38.62353516 60.98027344 -39.7578125 60.60546875 C-45.9495794 57.77745607 -51.05988701 50.86706827 -53.828125 44.703125 C-56.859516 34.25781773 -56.24702296 23.12486292 -51.13671875 13.53515625 C-45.62081872 4.44826891 -38.69491347 -1.45781469 -28.24609375 -4.18359375 C-18.57827424 -5.84093424 -8.37395883 -5.50884073 0 0 Z " fill="#F2F2F2" transform="translate(132.51171875,183.65234375)"/>
<path d="M0 0 C6.85765747 4.93109149 11.76868933 11.4628835 14.4609375 19.4921875 C16.29968921 31.63684595 15.69595576 42.29320502 8.4609375 52.4921875 C2.64942728 59.66273686 -3.93426357 64.57316977 -13.16015625 66.0859375 C-26.00759751 67.22448214 -35.29506014 65.74971031 -45.5390625 57.4921875 C-45.5390625 56.8321875 -45.5390625 56.1721875 -45.5390625 55.4921875 C-46.14621094 55.24082031 -46.75335938 54.98945313 -47.37890625 54.73046875 C-52.91908983 51.55463115 -54.86856474 44.12478557 -56.4765625 38.3046875 C-58.5828669 28.08432409 -56.88425183 18.40083639 -51.5390625 9.4921875 C-50.8790625 9.4921875 -50.2190625 9.4921875 -49.5390625 9.4921875 C-49.27222656 8.8940625 -49.00539063 8.2959375 -48.73046875 7.6796875 C-44.90178233 0.64996817 -36.98016405 -2.82499759 -29.64453125 -5.09375 C-19.30705992 -7.1267221 -9.02197963 -5.3576679 0 0 Z " fill="#F2F2F2" transform="translate(407.5390625,184.5078125)"/>
<path d="M0 0 C3.31437316 2.38559434 6.33788978 4.89420474 9 8 C9 8.66 9 9.32 9 10 C9.66 10 10.32 10 11 10 C11.81436868 11.76997474 12.6264294 13.54101152 13.4375 15.3125 C13.88996094 16.29863281 14.34242188 17.28476563 14.80859375 18.30078125 C18.15127933 25.87388201 18.30182326 34.68565431 15.91796875 42.5859375 C14.71176468 45.45718983 13.43551062 48.23723039 12 51 C11.505 51.99 11.505 51.99 11 53 C10.34 53 9.68 53 9 53 C8.731875 53.598125 8.46375 54.19625 8.1875 54.8125 C4.42470221 61.74396962 -2.84068171 64.6615292 -10 67 C-18.07206927 69.36676206 -26.34816093 68.27240812 -34 65 C-38.77787042 62.3222924 -43.49535593 59.26652321 -47 55 C-47 54.34 -47 53.68 -47 53 C-47.66 53 -48.32 53 -49 53 C-54.33367284 43.03172794 -57.1453606 33.1462985 -54.171875 21.85546875 C-52.70276633 17.76060241 -50.9840137 13.86972042 -49 10 C-48.34 10 -47.68 10 -47 10 C-46.74089844 9.401875 -46.48179687 8.80375 -46.21484375 8.1875 C-42.80133604 2.04099095 -35.47067641 -1.19136102 -29.05078125 -3.3046875 C-19.17289892 -5.55598463 -9.05229336 -4.60890323 0 0 Z " fill="#F1F1F1" transform="translate(269,113)"/>
<path d="M0 0 C8.14513368 6.0609001 13.48320389 14.33889421 15.4609375 24.328125 C16.60372168 34.14989175 13.66492611 42.5031703 9 51 C3.29878152 58.1265231 -4.09439286 64.08166967 -13.25 65.8125 C-25.412184 66.68531556 -34.75977354 65.24211811 -44.4375 57.4375 C-51.19934642 51.37515494 -56.14014181 44.26731706 -56.8515625 34.98046875 C-56.88840233 33.32070291 -56.8956137 31.66004665 -56.875 30 C-56.87242187 29.13213867 -56.86984375 28.26427734 -56.8671875 27.37011719 C-56.63884094 19.70052707 -54.61100754 14.19826104 -50.25 7.8125 C-49.59 7.8125 -48.93 7.8125 -48.25 7.8125 C-47.59 6.4925 -46.93 5.1725 -46.25 3.8125 C-45.59 3.8125 -44.93 3.8125 -44.25 3.8125 C-44.25 3.1525 -44.25 2.4925 -44.25 1.8125 C-29.31921631 -6.77337561 -15.205564 -9.95521231 0 0 Z " fill="#F2F2F2" transform="translate(462.25,294.1875)"/>
<path d="M0 0 C0.46148437 0.39058594 0.92296875 0.78117187 1.3984375 1.18359375 C1.3984375 1.84359375 1.3984375 2.50359375 1.3984375 3.18359375 C2.0584375 3.18359375 2.7184375 3.18359375 3.3984375 3.18359375 C3.3984375 3.84359375 3.3984375 4.50359375 3.3984375 5.18359375 C4.0584375 5.18359375 4.7184375 5.18359375 5.3984375 5.18359375 C5.3984375 5.84359375 5.3984375 6.50359375 5.3984375 7.18359375 C6.0584375 7.18359375 6.7184375 7.18359375 7.3984375 7.18359375 C14.21036835 17.15820678 15.18593152 27.40408297 13.3984375 39.18359375 C10.35541423 49.31632737 3.57336411 57.04563485 -5.6015625 62.18359375 C-13.84388474 66.22633954 -23.64699184 66.60020532 -32.5078125 64.4921875 C-42.93494262 60.64637871 -51.03926631 53.40419373 -55.75 43.3125 C-59.48039678 33.98650805 -59.07463186 24.90907022 -55.69140625 15.5 C-53.59427008 11.04264606 -50.82617679 6.90549795 -47.6015625 3.18359375 C-46.9415625 3.18359375 -46.2815625 3.18359375 -45.6015625 3.18359375 C-45.6015625 2.52359375 -45.6015625 1.86359375 -45.6015625 1.18359375 C-31.67194076 -9.60062954 -14.55191305 -9.23154958 0 0 Z " fill="#F3F3F3" transform="translate(80.6015625,294.81640625)"/>
<path d="M0 0 C0.68900391 0.00064453 1.37800781 0.00128906 2.08789062 0.00195312 C7.22427155 0.04275403 12.33619372 0.34188166 17.4609375 0.66796875 C28.55551548 1.36444309 39.65935406 1.5302818 50.77172852 1.73974609 C79.61123809 2.29557786 79.61123809 2.29557786 84.6875 5.1875 C79.4654103 10.91495322 73.49228149 15.94295726 65.6875 17.1875 C64.00696955 17.25325665 62.32392776 17.26833315 60.64233398 17.2409668 C59.65659393 17.22725037 58.67085388 17.21353394 57.65524292 17.19940186 C56.59209869 17.17871643 55.52895447 17.15803101 54.43359375 17.13671875 C53.3158255 17.11853088 52.19805725 17.10034302 51.04641724 17.081604 C47.40578935 17.01942693 43.7654276 16.94791642 40.125 16.875 C38.89329071 16.85204865 37.66158142 16.82909729 36.39254761 16.80545044 C15.78967571 16.41591268 -4.75526827 15.60531128 -25.3125 14.1875 C-25.6425 13.5275 -25.9725 12.8675 -26.3125 12.1875 C-18.65210241 3.88873595 -11.44505697 -0.19159126 0 0 Z " fill="#D9D9D9" transform="translate(209.3125,334.8125)"/>
<path d="M0 0 C0.80662582 -0.0049649 1.61325165 -0.00992981 2.44432068 -0.01504517 C5.118488 -0.02967727 7.79259606 -0.03646951 10.46679688 -0.04199219 C12.3200277 -0.04774152 14.17325849 -0.05349928 16.02648926 -0.05926514 C19.91365843 -0.06977725 23.80080689 -0.07561895 27.68798828 -0.07910156 C32.67855781 -0.08459543 37.66885574 -0.10864152 42.6593399 -0.13707352 C46.48708915 -0.15565685 50.31477231 -0.16090312 54.14256287 -0.16243744 C55.98304229 -0.16547282 57.82352032 -0.17353095 59.66395569 -0.18662262 C62.233215 -0.20359818 64.80180178 -0.2018243 67.37109375 -0.1953125 C68.13687241 -0.20452728 68.90265106 -0.21374207 69.69163513 -0.22323608 C71.80749512 -0.20635986 71.80749512 -0.20635986 75.18554688 0.16113281 C77.18554688 3.16113281 77.18554688 3.16113281 76.87304688 5.78613281 C76.18554688 8.16113281 76.18554688 8.16113281 75.18554688 9.16113281 C72.57953621 9.27218245 69.999777 9.31852334 67.39282227 9.32226562 C66.16847221 9.32971298 66.16847221 9.32971298 64.91938782 9.33731079 C62.20731782 9.35196908 59.49530629 9.3587401 56.78320312 9.36425781 C54.90612281 9.37000577 53.02904253 9.37576354 51.15196228 9.38153076 C47.21173833 9.39205087 43.27153485 9.39788707 39.33129883 9.40136719 C34.27232079 9.40685735 29.21361117 9.43089221 24.15471745 9.45933914 C20.27635395 9.47792412 16.39805568 9.48316888 12.51965141 9.48470306 C10.65405241 9.48773897 8.7884548 9.49579881 6.92289925 9.50888824 C4.31761116 9.52586442 1.71298632 9.52408954 -0.89233398 9.51757812 C-2.05738464 9.5314003 -2.05738464 9.5314003 -3.24597168 9.54550171 C-5.39170837 9.52862549 -5.39170837 9.52862549 -8.81445312 9.16113281 C-10.81445312 6.16113281 -10.81445312 6.16113281 -10.56445312 3.53613281 C-10.31695312 2.75238281 -10.06945312 1.96863281 -9.81445312 1.16113281 C-6.70669089 -0.3927483 -3.41166658 0.00498024 0 0 Z " fill="#D9D9D9" transform="translate(216.814453125,53.8388671875)"/>
<path d="M0 0 C0.87789688 -0.0066568 1.75579376 -0.0133136 2.66029358 -0.02017212 C4.51886903 -0.03030678 6.37748093 -0.03498889 8.23608398 -0.03466797 C11.0831281 -0.03904019 13.92862112 -0.07534731 16.77539062 -0.11328125 C18.57942177 -0.11914939 20.38346029 -0.1231188 22.1875 -0.125 C23.46728981 -0.14655655 23.46728981 -0.14655655 24.77293396 -0.16854858 C30.64121755 -0.12307965 30.64121755 -0.12307965 33.26391602 2.19677734 C34.16015625 4.3359375 34.16015625 4.3359375 33.47265625 7.0234375 C32.16015625 9.3359375 32.16015625 9.3359375 30.16015625 10.3359375 C27.36281597 10.45936607 24.59136036 10.52434972 21.79296875 10.5390625 C20.54626907 10.54761261 20.54626907 10.54761261 19.27438354 10.55633545 C17.51415278 10.56578896 15.75390428 10.57232082 13.99365234 10.57617188 C11.30274512 10.58587408 8.61260277 10.61689206 5.921875 10.6484375 C4.21224412 10.65496793 2.50260778 10.66021825 0.79296875 10.6640625 C-0.01131561 10.6764093 -0.81559998 10.6887561 -1.64425659 10.70147705 C-5.07292092 10.68783072 -7.40055347 10.59895421 -10.37939453 8.81542969 C-10.86134277 8.32719727 -11.34329102 7.83896484 -11.83984375 7.3359375 C-10.6180333 -0.40219538 -7.04594203 0.0183366 0 0 Z " fill="#BFBFBF" transform="translate(240.83984375,37.6640625)"/>
<path d="M0 0 C1.25025719 -0.00855011 1.25025719 -0.00855011 2.52577209 -0.01727295 C4.29019907 -0.02672544 6.05464371 -0.03325792 7.8190918 -0.03710938 C10.5209826 -0.04682404 13.22211565 -0.07784804 15.92382812 -0.109375 C17.63671422 -0.11590413 19.34960577 -0.12115496 21.0625 -0.125 C21.87194565 -0.1373468 22.6813913 -0.1496936 23.5153656 -0.16241455 C29.16721608 -0.13992203 29.16721608 -0.13992203 31.2724762 1.53790283 C32.59765625 3.203125 32.59765625 3.203125 33.59765625 6.203125 C32.71875 8.35742188 32.71875 8.35742188 30.59765625 10.203125 C27.49878881 10.60765696 24.76029205 10.7639043 21.66015625 10.734375 C20.78367432 10.7382019 19.90719238 10.74202881 19.00415039 10.74597168 C17.15151826 10.74869299 15.29884786 10.74131646 13.44628906 10.72460938 C10.60785396 10.70320191 7.77194997 10.72440261 4.93359375 10.75 C3.13410899 10.74735676 1.3346258 10.74223186 -0.46484375 10.734375 C-1.3148999 10.74247192 -2.16495605 10.75056885 -3.04077148 10.75891113 C-8.88103905 10.66580714 -8.88103905 10.66580714 -11.50390625 8.33789062 C-12.40234375 6.203125 -12.40234375 6.203125 -11.71484375 3.515625 C-9.11037731 -1.07319682 -4.73301003 0.024788 0 0 Z " fill="#BFBFBF" transform="translate(241.40234375,68.796875)"/>
<path d="M0 0 C1.29292969 -0.04125 2.58585937 -0.0825 3.91796875 -0.125 C13.11354948 -0.20139112 13.11354948 -0.20139112 15.89941406 1.73046875 C18.01798073 4.6945955 18.125 6.88088713 18.125 10.5 C7.2997378 11.6102833 -4.13197965 12.74853914 -14.875 10.5 C-15.875 9.5 -15.875 9.5 -16.0625 6.0625 C-15.61774801 -2.38778777 -6.53680208 0.05182796 0 0 Z " fill="#B3B3B3" transform="translate(330.875,224.5)"/>
<path d="M0 0 C1.7169104 0.02018188 1.7169104 0.02018188 3.46850586 0.04077148 C4.7130957 0.04786133 5.95768555 0.05495117 7.23999023 0.06225586 C8.54129883 0.09512695 9.84260742 0.12799805 11.18334961 0.16186523 C12.48852539 0.16766602 13.79370117 0.1734668 15.13842773 0.17944336 C24.82648577 0.3050014 24.82648577 0.3050014 27.12084961 2.59936523 C27.30834961 6.16186523 27.30834961 6.16186523 27.12084961 9.59936523 C23.17687244 13.5433424 6.26008059 11.71860383 0.92553711 11.73217773 C-1.77665309 11.60421887 -4.24705674 11.20677146 -6.87915039 10.59936523 C-6.17845086 5.69446852 -5.33114814 1.10980825 0 0 Z " fill="#B5B5B5" transform="translate(157.879150390625,224.400634765625)"/>
<path d="M0 0 C4.5206665 -0.02468857 9.0412939 -0.04285449 13.56201172 -0.05493164 C15.10043013 -0.05996552 16.63884375 -0.06679308 18.17724609 -0.07543945 C20.38640526 -0.08754639 22.59550126 -0.09323769 24.8046875 -0.09765625 C25.49432587 -0.10281754 26.18396423 -0.10797882 26.89450073 -0.11329651 C31.77225659 -0.11387171 31.77225659 -0.11387171 34 1 C33.125 8.875 33.125 8.875 32 10 C29.78144736 10.08783542 27.56011504 10.10694609 25.33984375 10.09765625 C24.34314415 10.09553383 24.34314415 10.09553383 23.3263092 10.09336853 C21.19666101 10.08775518 19.06711661 10.07520054 16.9375 10.0625 C15.49674631 10.05748671 14.05599097 10.05292351 12.61523438 10.04882812 C9.07678898 10.03778145 5.53840461 10.02050792 2 10 C-1.07692308 4.58461538 -1.07692308 4.58461538 -0.6875 1.625 C-0.460625 1.08875 -0.23375 0.5525 0 0 Z " fill="#FCFCFC" transform="translate(313,198)"/>
<path d="M0 0 C0.68050415 -0.00095673 1.3610083 -0.00191345 2.06213379 -0.00289917 C3.50122164 -0.00357981 4.94031257 -0.00173357 6.37939453 0.00244141 C8.58503093 0.00779135 10.7904637 0.00249259 12.99609375 -0.00390625 C14.39322962 -0.00324545 15.79036536 -0.00196424 17.1875 0 C19.10079102 0.00169189 19.10079102 0.00169189 21.05273438 0.00341797 C24.09375 0.1328125 24.09375 0.1328125 26.09375 1.1328125 C25.34375 7.8828125 25.34375 7.8828125 23.09375 10.1328125 C20.11279297 10.35986328 20.11279297 10.35986328 16.3359375 10.328125 C15.67288605 10.3252951 15.00983459 10.32246521 14.32669067 10.31954956 C12.20719417 10.30834685 10.08811896 10.28324301 7.96875 10.2578125 C6.53255818 10.24778278 5.09635975 10.23865691 3.66015625 10.23046875 C0.13788372 10.2084075 -3.38414203 10.17387744 -6.90625 10.1328125 C-8.40446059 6.76183867 -8.90625 4.92839131 -8.90625 1.1328125 C-5.9519943 -0.34431535 -3.29364796 0.00291252 0 0 Z " fill="#BCBCBC" transform="translate(161.90625,197.8671875)"/>
<path d="M0 0 C4.5206665 -0.02468857 9.0412939 -0.04285449 13.56201172 -0.05493164 C15.10043013 -0.05996552 16.63884375 -0.06679308 18.17724609 -0.07543945 C20.38640526 -0.08754639 22.59550126 -0.09323769 24.8046875 -0.09765625 C25.49432587 -0.10281754 26.18396423 -0.10797882 26.89450073 -0.11329651 C31.77225659 -0.11387171 31.77225659 -0.11387171 34 1 C33.125 8.875 33.125 8.875 32 10 C29.78144736 10.08783542 27.56011504 10.10694609 25.33984375 10.09765625 C24.34314415 10.09553383 24.34314415 10.09553383 23.3263092 10.09336853 C21.19666101 10.08775518 19.06711661 10.07520054 16.9375 10.0625 C15.49674631 10.05748671 14.05599097 10.05292351 12.61523438 10.04882812 C9.07678898 10.03778145 5.53840461 10.02050792 2 10 C-1.07692308 4.58461538 -1.07692308 4.58461538 -0.6875 1.625 C-0.460625 1.08875 -0.23375 0.5525 0 0 Z M1 2 C1 3.65 1 5.3 1 7 C2.10267706 8.32887035 2.10267706 8.32887035 4.86743164 8.11352539 C6.11903076 8.10828857 7.37062988 8.10305176 8.66015625 8.09765625 C9.32462265 8.0962413 9.98908905 8.09482635 10.6736908 8.09336853 C12.80333899 8.08775518 14.93288339 8.07520054 17.0625 8.0625 C18.50325369 8.05748671 19.94400903 8.05292351 21.38476562 8.04882812 C24.92321102 8.03778145 28.46159539 8.02050792 32 8 C32.33 6.02 32.66 4.04 33 2 C22.44 2 11.88 2 1 2 Z " fill="#696969" transform="translate(313,198)"/>
<path d="M0 0 C0.99 0.495 0.99 0.495 2 1 C2 2.65 2 4.3 2 6 C20.315 6.495 20.315 6.495 39 7 C38.67 8.65 38.34 10.3 38 12 C37.505 10.515 37.505 10.515 37 9 C36.19369141 9.00523682 35.38738281 9.01047363 34.55664062 9.01586914 C30.87110181 9.03677362 27.18557552 9.04970286 23.5 9.0625 C22.2315625 9.07087891 20.963125 9.07925781 19.65625 9.08789062 C13.35237242 9.10430697 7.21797704 9.10045881 1 8 C0 7 0 7 -0.0625 3.4375 C-0.041875 2.303125 -0.02125 1.16875 0 0 Z " fill="#3D3D3D" transform="translate(371,477)"/>
<path d="M0 0 C0 0.99 0 1.98 0 3 C-4.44147569 3.85916096 -8.62769824 4.11697565 -13.1484375 4.09765625 C-14.13452499 4.09553383 -14.13452499 4.09553383 -15.14053345 4.09336853 C-17.21873731 4.08781762 -19.29682927 4.07527465 -21.375 4.0625 C-22.79296718 4.05747864 -24.21093607 4.05291685 -25.62890625 4.04882812 C-29.08597322 4.03786437 -32.54297567 4.02063421 -36 4 C-36.33 4.99 -36.66 5.98 -37 7 C-37.33 5.35 -37.66 3.7 -38 2 C-36.88439697 1.97494385 -35.76879395 1.9498877 -34.61938477 1.92407227 C-30.4950741 1.83016579 -26.3709385 1.72990486 -22.24682617 1.62768555 C-20.4591073 1.584273 -18.67134526 1.54260271 -16.88354492 1.50268555 C-14.31936609 1.4451354 -11.75540588 1.38139797 -9.19140625 1.31640625 C-8.3872377 1.29969376 -7.58306915 1.28298126 -6.75453186 1.26576233 C-3.07330002 1.50779304 -3.07330002 1.50779304 0 0 Z " fill="#353535" transform="translate(128,482)"/>
<path d="M0 0 C0.66 0.33 1.32 0.66 2 1 C-1.73277034 5.43199245 -5.32370581 9.52618146 -10 13 C-10.66 13.66 -11.32 14.32 -12 15 C-11.40312566 11.65750371 -10.26396123 9.53563658 -8 7 C-7.34 7 -6.68 7 -6 7 C-6 6.34 -6 5.68 -6 5 C-5.34 5 -4.68 5 -4 5 C-4 4.34 -4 3.68 -4 3 C-2 1.375 -2 1.375 0 0 Z " fill="#808080" transform="translate(73,250)"/>
<path d="M0 0 C0 0.66 0 1.32 0 2 C5.61 2 11.22 2 17 2 C17.33 2.66 17.66 3.32 18 4 C17.67 4.66 17.34 5.32 17 6 C16.52046875 5.68289063 16.0409375 5.36578125 15.546875 5.0390625 C11.83777894 3.52584233 8.22190798 3.53308589 4.25 3.375 C3.45722656 3.33632813 2.66445313 3.29765625 1.84765625 3.2578125 C-0.10119416 3.163892 -2.05056451 3.08087178 -4 3 C-4 2.34 -4 1.68 -4 1 C-2 0 -2 0 0 0 Z " fill="#656565" transform="translate(299,356)"/>
<path d="M0 0 C-1.50640036 3.83447364 -3.83675586 5.46940469 -7 8 C-8.31165257 10.11660427 -8.31165257 10.11660427 -9 12 C-9.66 12 -10.32 12 -11 12 C-9.31234256 7.07766579 -6.01102545 0 0 0 Z " fill="#848484" transform="translate(93,186)"/>
<path d="M0 0 C0.33 0.66 0.66 1.32 1 2 C-0.07408957 4.60474038 -1.20045633 7.09966038 -2.4375 9.625 C-2.77587891 10.33140625 -3.11425781 11.0378125 -3.46289062 11.765625 C-4.30154879 13.51381384 -5.14987847 15.25735686 -6 17 C-6.66 17 -7.32 17 -8 17 C-6.3341708 10.83643195 -3.12194714 5.51740344 0 0 Z " fill="#7B7B7B" transform="translate(146,317)"/>
<path d="M0 0 C0.66 0.33 1.32 0.66 2 1 C-2.83471074 7.17768595 -2.83471074 7.17768595 -7 9 C-8.68889872 10.3050581 -10.3603279 11.63360658 -12 13 C-10.44997253 9.11602311 -7.99523379 6.97020381 -4.875 4.25 C-3.96492188 3.45078125 -3.05484375 2.6515625 -2.1171875 1.828125 C-1.06917969 0.92320312 -1.06917969 0.92320312 0 0 Z " fill="#6C6C6C" transform="translate(349,248)"/>
<path d="M0 0 C-1.36125 0.86625 -1.36125 0.86625 -2.75 1.75 C-5.97018576 3.83602168 -5.97018576 3.83602168 -8.25 6.25 C-9.11625 7.11625 -9.11625 7.11625 -10 8 C-10.66 8 -11.32 8 -12 8 C-11.66032174 4.82966958 -11.00130809 4.00117393 -8.5625 1.8125 C-5.06225471 -0.66328325 -4.05850808 -1.21755242 0 0 Z " fill="#8C8C8C" transform="translate(60,1)"/>
<path d="M0 0 C0.66 0.33 1.32 0.66 2 1 C-0.62637999 4.69638666 -2.52740559 6.8818514 -7 8 C-9.15625 7.5390625 -9.15625 7.5390625 -11 7 C-9.21475351 5.80286983 -7.4215972 4.61752721 -5.625 3.4375 C-4.62726563 2.77621094 -3.62953125 2.11492187 -2.6015625 1.43359375 C-1.74304688 0.96050781 -0.88453125 0.48742187 0 0 Z " fill="#727272" transform="translate(414,246)"/>
<path d="M0 0 C0.66 0 1.32 0 2 0 C2.33 0.66 2.66 1.32 3 2 C8.61 2.33 14.22 2.66 20 3 C20 3.33 20 3.66 20 4 C13.4 4 6.8 4 0 4 C-0.33 3.34 -0.66 2.68 -1 2 C-0.67 1.34 -0.34 0.68 0 0 Z " fill="#747474" transform="translate(184,345)"/>
<path d="M0 0 C-0.33 1.32 -0.66 2.64 -1 4 C-1.66 4 -2.32 4 -3 4 C-3.33 4.66 -3.66 5.32 -4 6 C-5.64363134 6.72159424 -7.31050386 7.39351421 -9 8 C-8.34 6.68 -7.68 5.36 -7 4 C-6.34 4 -5.68 4 -5 4 C-5 3.34 -5 2.68 -5 2 C-2 0 -2 0 0 0 Z " fill="#848484" transform="translate(40,294)"/>
<path d="M0 0 C0 0.66 0 1.32 0 2 C-0.99 2.33 -1.98 2.66 -3 3 C-3.66 3.825 -4.32 4.65 -5 5.5 C-7 8 -7 8 -10 9 C-8.5124715 4.98367305 -4.56813239 0 0 0 Z " fill="#7A7A7A" transform="translate(172,280)"/>
<path d="M0 0 C0.66 0.33 1.32 0.66 2 1 C2.25 3.3125 2.25 3.3125 2 6 C0.125 7.625 0.125 7.625 -2 9 C-2.66 9.99 -3.32 10.98 -4 12 C-3.33501617 7.61110675 -1.81242323 4.0188515 0 0 Z " fill="#636363" transform="translate(356,194)"/>
<path d="M0 0 C2.3125 0.8125 2.3125 0.8125 3.3125 2.8125 C1.9925 3.1425 0.6725 3.4725 -0.6875 3.8125 C-0.6875 3.1525 -0.6875 2.4925 -0.6875 1.8125 C-2.6675 2.1425 -4.6475 2.4725 -6.6875 2.8125 C-4.2961605 0.59829676 -3.32534138 -0.23200056 0 0 Z " fill="#7A7A7A" transform="translate(220.6875,175.1875)"/>
<path d="M0 0 C0.66 0.33 1.32 0.66 2 1 C-3.14285714 7.57142857 -3.14285714 7.57142857 -7 9 C-5.44499019 5.18315774 -2.96404505 2.80804268 0 0 Z " fill="#646464" transform="translate(208,181)"/>
<path d="M0 0 C3.3 0 6.6 0 10 0 C10 0.99 10 1.98 10 3 C9.01 3.33 8.02 3.66 7 4 C7 3.01 7 2.02 7 1 C4.69 1 2.38 1 0 1 C0 0.67 0 0.34 0 0 Z " fill="#929292" transform="translate(283,339)"/>
</svg>
