<?xml version="1.0" encoding="UTF-8"?>
<svg version="1.1" xmlns="http://www.w3.org/2000/svg" width="500" height="500">
<path d="M0 0 C165 0 330 0 500 0 C500 165 500 330 500 500 C335 500 170 500 0 500 C0 335 0 170 0 0 Z " fill="#FEFEFE" transform="translate(0,0)"/>
<path d="M0 0 C1.3076683 0.01078583 1.3076683 0.01078583 2.64175415 0.02178955 C3.55888184 0.0214975 4.47600952 0.02120544 5.42092896 0.02090454 C8.46191771 0.0223014 11.5026635 0.03787932 14.54360962 0.05352783 C16.64825303 0.0572567 18.75289818 0.06010426 20.85754395 0.06210327 C26.40439626 0.06974969 31.95114429 0.08940683 37.49795532 0.11151123 C43.15508615 0.13194796 48.81223379 0.14110033 54.46939087 0.15118408 C65.57490551 0.17265177 76.68034265 0.20679985 87.78579712 0.24884033 C86.41969453 4.00444455 84.82939943 6.62660874 81.78579712 9.24884033 C76.03093994 10.59972319 70.34334746 10.36438808 64.46157837 10.24102783 C62.75098114 10.2390622 61.04037368 10.24149835 59.32978821 10.24813843 C54.83718111 10.25575538 50.34660103 10.21233916 45.85440063 10.15551758 C38.65480123 10.07276906 31.45480814 10.06621013 24.25481224 10.0624733 C21.73999601 10.05362779 19.22622944 10.02218674 16.71165466 9.98733521 C15.17427874 9.97750205 13.63689978 9.96812844 12.09951782 9.95928955 C11.39972305 9.94371506 10.69992828 9.92814056 9.97892761 9.91209412 C6.31848872 9.88393554 6.31848872 9.88393554 3.10614318 11.44138938 C1.31546391 13.89268987 1.41302706 15.48287185 1.41665363 18.50622082 C1.41068049 19.60249678 1.40470734 20.69877274 1.39855319 21.82826918 C1.40729172 23.03739748 1.41603024 24.24652577 1.42503357 25.49229431 C1.42247029 26.77300947 1.41990702 28.05372464 1.41726607 29.37324935 C1.41054081 32.93526512 1.42258154 36.49701155 1.43760026 40.05899298 C1.45052712 43.89742198 1.44617354 47.73583516 1.44389343 51.57427979 C1.44231857 58.22700806 1.45174996 64.87964824 1.46860695 71.53235435 C1.49296361 81.15109656 1.5007988 90.76979606 1.50457092 100.38856576 C1.51114065 115.99346335 1.53111594 131.59831396 1.55947876 147.20318604 C1.58700585 162.36399093 1.60824603 177.52478308 1.6210022 192.68560791 C1.62179037 193.61974936 1.62257854 194.5538908 1.62339059 195.51633956 C1.62730564 200.20254188 1.63109678 204.88874429 1.6348263 209.57494676 C1.66593844 248.46627752 1.71878841 287.35755583 1.78579712 326.24884033 C2.09457448 325.31788512 2.40335184 324.38692991 2.72148609 323.42776394 C3.88926824 319.90819841 5.05892169 316.38925696 6.22908497 312.87048244 C6.73119861 311.35975589 7.23283312 309.84887 7.73394108 308.33780956 C12.24418661 294.73929216 17.01610211 281.25405358 21.97329712 267.81134033 C22.79178406 265.58276029 23.61022379 263.35416291 24.42861938 261.12554932 C72.65421297 130.02841089 72.65421297 130.02841089 95.78579712 112.24884033 C96.64946899 112.11477783 97.51314087 111.98071533 98.40298462 111.84259033 C99.18931274 111.64665283 99.97564087 111.45071533 100.78579712 111.24884033 C101.90332716 108.92480265 101.90332716 108.92480265 102.78579712 106.24884033 C107.19068174 100.99405059 112.32955718 96.73629619 117.89126587 92.77618408 C119.96462686 91.10467038 121.53324953 89.3040936 123.22329712 87.24884033 C127.24518926 82.42071635 132.18292367 79.05027706 137.78579712 76.24884033 C145.46803779 75.58507733 152.50403844 75.35378335 158.78579712 80.24884033 C170.9577446 91.09386691 174.4394928 108.67430104 175.78579712 124.24884033 C176.03057071 128.51736423 176.17013468 132.79003758 176.32583618 137.06256104 C176.69577817 146.10583801 177.61027907 155.06374396 178.56558228 164.06134033 C179.29469671 171.03592967 179.94427393 178.00341882 180.43814087 184.99884033 C181.72230315 203.08083628 183.48382179 221.0224649 185.84829712 238.99884033 C186.04318222 240.48819092 186.04318222 240.48819092 186.24200439 242.00762939 C186.61699563 244.85442674 186.99843168 247.70025854 187.38345337 250.54571533 C187.49485657 251.37963806 187.60625977 252.21356079 187.72103882 253.07275391 C188.41671153 258.10771849 189.32093037 263.05606224 190.41018677 268.02137756 C191.69132691 275.61885715 188.40278687 282.80796932 185.84829712 289.81134033 C185.12908558 291.81200929 184.41159413 293.81329757 183.69595337 295.81524658 C183.36224731 296.74868896 183.02854126 297.68213135 182.6847229 298.64385986 C181.58913873 301.81873307 180.6546691 305.00535486 179.78579712 308.24884033 C181.43579712 308.57884033 183.08579712 308.90884033 184.78579712 309.24884033 C197.35182021 294.2309103 203.83507489 272.83668546 209.06362915 254.20806885 C210.29492155 249.83193283 211.70529996 245.57819333 213.28579712 241.31134033 C215.42988823 235.45171245 217.148264 229.55739068 218.77456665 223.54058838 C220.45219696 217.36374157 222.28009177 211.24170384 224.16079712 205.12384033 C227.81994157 193.19895883 231.32428723 181.23240378 234.78579712 169.24884033 C235.04215942 168.36518799 235.29852173 167.48153564 235.56265259 166.57110596 C240.2558765 150.38757521 244.69240304 134.13266488 248.94204712 117.82696533 C257.18549899 86.31570575 257.18549899 86.31570575 264.78579712 81.24884033 C266.82876587 81.05352783 266.82876587 81.05352783 268.97329712 81.12384033 C270.23142212 81.16509033 271.48954712 81.20634033 272.78579712 81.24884033 C272.86829712 80.56821533 272.95079712 79.88759033 273.03579712 79.18634033 C274.29842167 74.24106084 276.57275371 70.52927504 280.03579712 66.87384033 C283.68208516 64.71921558 286.58554648 64.68600928 290.78579712 64.24884033 C290.71891537 57.04025026 290.62915592 49.83220762 290.52334595 42.62408447 C290.49005385 40.17102565 290.46203542 37.71788942 290.43936157 35.26470947 C290.40589483 31.74215656 290.35358197 28.22031569 290.29751587 24.69805908 C290.28793098 23.04794075 290.28793098 23.04794075 290.27815247 21.36448669 C290.25835831 20.34365494 290.23856415 19.32282318 290.21817017 18.27105713 C290.20706711 17.37170944 290.19596405 16.47236176 290.18452454 15.54576111 C289.92648024 13.23746726 289.92648024 13.23746726 288.70440674 11.45304871 C285.72428158 9.58258395 283.14383897 9.91649389 279.65567017 9.95928955 C278.57219299 9.96568703 278.57219299 9.96568703 277.46682739 9.97221375 C275.89860067 9.98251537 274.33040595 9.99921585 272.76230431 10.0215416 C270.27758923 10.05378643 267.7938577 10.06248784 265.3089447 10.06381226 C258.24454511 10.06942444 251.1809423 10.09846852 244.11709595 10.19024658 C239.7948773 10.24471548 235.4743967 10.25533173 231.15189552 10.23810196 C229.50721824 10.24004281 227.86247266 10.25848166 226.21817589 10.29391098 C213.29563297 10.5643497 213.29563297 10.5643497 209.409729 7.17858887 C207.88058699 4.90970436 206.73720832 2.80843517 205.78579712 0.24884033 C218.00731745 0.20257491 230.22881708 0.16700068 242.45040703 0.14521599 C248.12489787 0.13476239 253.79932896 0.1205745 259.4737854 0.09796143 C264.94617427 0.07628917 270.41850553 0.0642836 275.89093399 0.05908585 C277.98260531 0.05537996 280.07427335 0.0481437 282.16592026 0.03738022 C285.08729711 0.02293992 288.00843351 0.02085925 290.92984009 0.02178955 C291.80161896 0.014599 292.67339783 0.00740845 293.57159424 0 C299.5576928 0.02073601 299.5576928 0.02073601 301.78579712 2.24884033 C301.98269456 4.68313462 302.05358371 7.00362869 302.0374794 9.43907928 C302.04038628 10.19211407 302.04329316 10.94514886 302.04628813 11.72100288 C302.05364753 14.2706851 302.04661737 16.82013112 302.0397644 19.36981201 C302.04206649 21.20565016 302.04524132 23.04148739 302.04921889 24.87732267 C302.05761015 29.94266791 302.05342208 35.00793832 302.04724646 40.07328391 C302.04274058 45.52801265 302.04969642 50.98272809 302.0552063 56.43745422 C302.06412197 67.13139798 302.06216864 77.82531374 302.05638102 88.51925862 C302.05187305 97.20674503 302.05124786 105.89422357 302.05342865 114.58171082 C302.05373512 115.81589814 302.05404158 117.05008547 302.05435733 118.32167241 C302.05499675 120.82852288 302.05564518 123.33537335 302.05630252 125.84222382 C302.06184926 148.70403217 302.05608698 171.56582782 302.04561732 194.42763346 C302.0361256 215.31286817 302.03697483 236.19807849 302.04653931 257.08331299 C302.05724068 280.52965808 302.0614628 303.97599152 302.05531478 327.42233896 C302.05467765 329.92021592 302.05404891 332.41809288 302.05342865 334.91596985 C302.0531201 336.14512752 302.05281155 337.37428519 302.05249365 338.64069006 C302.05076331 347.32257172 302.05368907 356.00444475 302.05838776 364.68632507 C302.06398408 375.25970145 302.06250656 385.83304811 302.05182627 396.40642107 C302.04655266 401.80605987 302.04454138 407.20564906 302.05112457 412.60528755 C302.05705141 417.54104199 302.05386341 422.47670045 302.04316947 427.41244608 C302.04092148 429.20514123 302.0421027 430.99784436 302.04692104 432.79053444 C302.05293722 435.21334135 302.0468319 437.6358125 302.0374794 440.05860138 C302.04216173 440.76670938 302.04684407 441.47481738 302.05166829 442.20438319 C302.01409788 447.02053958 302.01409788 447.02053958 299.78579712 449.24884033 C297.57762051 449.49953866 297.57762051 449.49953866 294.76637268 449.50052261 C293.69770494 449.50573811 292.62903719 449.5109536 291.52798557 449.51632714 C290.34454532 449.5118657 289.16110506 449.50740426 287.94180298 449.50280762 C286.69193824 449.5059276 285.4420735 449.50904758 284.15433407 449.51226211 C280.67379624 449.52064666 277.19336744 449.51646835 273.71282911 449.51028967 C269.96363538 449.50578106 266.21446094 449.51274099 262.465271 449.51824951 C255.1161452 449.52716225 247.76706017 449.52521316 240.41793275 449.51942423 C234.44736028 449.51491512 228.47679927 449.51429157 222.50622559 449.51647186 C221.23360742 449.51693156 221.23360742 449.51693156 219.93527979 449.51740055 C218.21197231 449.51803997 216.48866484 449.5186884 214.76535738 449.51934573 C198.59002225 449.52505453 182.41470975 449.51848252 166.23937833 449.507745 C152.34761336 449.49880899 138.4558818 449.50036088 124.56411743 449.50958252 C108.44831192 449.52027546 92.33252628 449.52450516 76.21671772 449.51835799 C74.49960137 449.51772087 72.78248501 449.51709212 71.06536865 449.51647186 C70.22042231 449.51616331 69.37547597 449.51585476 68.50492519 449.51553686 C62.53863833 449.51380698 56.57236402 449.51673131 50.6060791 449.52143097 C43.33930912 449.52702897 36.07258237 449.52554621 28.80581737 449.51486948 C25.09524324 449.50959814 21.38474129 449.50758074 17.67416763 449.51416779 C13.65931212 449.52118742 9.64464031 449.5128297 5.62979126 449.50280762 C4.446351 449.50726906 3.26291075 449.5117305 2.04360867 449.51632714 C0.97494092 449.51111165 -0.09372683 449.50589615 -1.19477844 449.50052261 C-2.12249022 449.50019791 -3.05020201 449.4998732 -4.00602627 449.49953866 C-6.21420288 449.24884033 -6.21420288 449.24884033 -8.21420288 447.24884033 C-8.49477863 444.70028973 -8.49477863 444.70028973 -8.53800964 441.36790466 C-8.5588669 440.08484877 -8.57972416 438.80179287 -8.60121346 437.47985649 C-8.61427755 436.01898405 -8.62693891 434.55810797 -8.63925171 433.097229 C-8.65917952 431.52032815 -8.67970318 429.94343474 -8.70075798 428.36654854 C-8.7567853 423.87779014 -8.79731549 419.38900026 -8.8341558 414.90004754 C-8.85901547 411.94587622 -8.88723812 408.99175261 -8.91617775 406.03761864 C-9.59292914 335.33702566 -9.17720619 264.62463519 -8.96308424 193.92257331 C-8.91346113 177.472744 -8.87481581 161.02290839 -8.84083857 144.57303999 C-8.80546974 127.50009506 -8.76277033 110.42718288 -8.71208316 93.35427636 C-8.68396614 83.83842025 -8.65876713 74.32257836 -8.64142418 64.80669594 C-8.62672668 56.78088046 -8.60519141 48.75512033 -8.57454904 40.72934923 C-8.55914138 36.64348299 -8.54699591 32.5576741 -8.54344749 28.47177887 C-8.54012572 24.74054789 -8.52772551 21.00946526 -8.50785575 17.27828672 C-8.49962807 15.28099561 -8.50127672 13.2836715 -8.50320071 11.28636438 C-8.49511852 10.11358003 -8.48703633 8.94079569 -8.47870922 7.73247242 C-8.47588883 6.71435217 -8.47306843 5.69623191 -8.47016257 4.64725953 C-7.90967662 -0.60466222 -4.45626556 0.01543663 0 0 Z " fill="#FBB2FC" transform="translate(103.21420288085938,41.75115966796875)"/>
<path d="M0 0 C7.46303322 4.8304824 11.01470311 10.31803012 13.22265625 18.83203125 C13.22265625 19.49203125 13.22265625 20.15203125 13.22265625 20.83203125 C14.310625 20.77402344 15.39859375 20.71601563 16.51953125 20.65625 C29.0313464 20.18628914 38.00467711 21.8903785 47.78515625 30.33203125 C50.26855993 32.64824355 51.99741675 34.33516341 53.40370178 37.43736267 C55.05708142 40.16724956 55.05708142 40.16724956 58.40379333 40.4443512 C59.71743362 40.43894821 61.03107391 40.43354523 62.38452148 40.42797852 C63.47281754 40.43406631 63.47281754 40.43406631 64.58309937 40.4402771 C66.15782623 40.44579626 67.73262601 40.43978013 69.30727959 40.42361641 C71.800111 40.39824554 74.29128484 40.40297663 76.78419495 40.41551208 C82.07636337 40.43628422 87.36802141 40.41656385 92.66015625 40.39453125 C98.78905607 40.37343731 104.91742389 40.36884666 111.04631233 40.39503288 C113.50174699 40.39839708 115.95616924 40.37715955 118.41148376 40.35462952 C119.91812358 40.35714086 121.42476215 40.36070098 122.93139648 40.36547852 C124.90305031 40.35618065 124.90305031 40.35618065 126.91453552 40.34669495 C130.22265625 40.83203125 130.22265625 40.83203125 132.64997864 42.54020691 C134.52530653 45.27307605 134.70934471 46.67649646 134.67675781 49.96777344 C134.67630463 51.49890778 134.67630463 51.49890778 134.67584229 53.06097412 C134.65519714 54.15589172 134.634552 55.25080933 134.61328125 56.37890625 C134.60762146 57.50524475 134.60196167 58.63158325 134.59613037 59.79205322 C134.5737417 63.38914507 134.52353838 66.98524051 134.47265625 70.58203125 C134.45259458 73.02081895 134.43434323 75.45962226 134.41796875 77.8984375 C134.37386869 83.87664199 134.30693088 89.85426544 134.22265625 95.83203125 C133.53486084 96.01741455 132.84706543 96.20279785 132.13842773 96.39379883 C131.23680908 96.64798584 130.33519043 96.90217285 129.40625 97.1640625 C128.51220459 97.4113208 127.61815918 97.6585791 126.69702148 97.91333008 C122.88399862 99.32905825 121.34231941 101.42772375 119.22265625 104.83203125 C118.05070512 107.47606733 117.12550333 110.07597173 116.22265625 112.83203125 C114.39734375 112.92484375 114.39734375 112.92484375 112.53515625 113.01953125 C109.45515341 113.44248939 108.19274873 113.85220144 105.53515625 115.64453125 C99.41905811 124.07482869 97.36181349 133.80060366 95.09545898 143.78173828 C93.83621857 149.32200369 92.44144519 154.77255955 90.78515625 160.20703125 C88.81320465 166.6870726 87.07801964 173.20489217 85.41015625 179.76953125 C82.38181146 191.61248696 78.77497341 203.25232282 75.12597656 214.91601562 C73.88639671 218.91751341 72.70310675 222.93414313 71.53515625 226.95703125 C69.79491275 232.94024328 67.96830238 238.89117243 66.09033203 244.83251953 C64.840818 248.80207729 63.64891342 252.78333205 62.49951172 256.78295898 C59.93474344 265.70015043 57.05348151 274.49514546 54.0769043 283.28320312 C52.56287844 287.76199343 51.08911963 292.23371451 49.78125 296.77734375 C48.01374081 302.74832193 45.72681341 308.49370771 43.41015625 314.26953125 C42.99701172 315.32462891 42.58386719 316.37972656 42.15820312 317.46679688 C34.55604615 336.50147343 34.55604615 336.50147343 28.22265625 341.83203125 C25.47265625 341.58203125 25.47265625 341.58203125 23.22265625 340.83203125 C21.97341885 337.08431904 22.66461101 335.9341145 24.0234375 332.28125 C24.42369141 331.19005859 24.82394531 330.09886719 25.23632812 328.97460938 C25.66494141 327.83443359 26.09355469 326.69425781 26.53515625 325.51953125 C27.3650335 323.27360379 28.19447447 321.02751506 29.0234375 318.78125 C29.39637939 317.78440186 29.76932129 316.78755371 30.15356445 315.76049805 C30.50636475 314.794104 30.85916504 313.82770996 31.22265625 312.83203125 C31.60268799 311.79747803 31.98271973 310.7629248 32.37426758 309.69702148 C33.59124373 305.58731928 32.86005886 301.98574802 32.22265625 297.83203125 C31.95781507 295.88598028 31.69320473 293.9398962 31.43159485 291.9934082 C31.12870296 289.74920262 30.81979528 287.50589159 30.50952148 285.26269531 C26.66173997 257.38824562 23.77989176 229.54958015 21.57983398 201.49707031 C21.49725845 200.45156006 21.41468292 199.4060498 21.3296051 198.32885742 C21.17411033 196.35489614 21.02054015 194.38078193 20.86924744 192.40649414 C20.48370821 187.51206662 19.93071022 182.69236984 19.22265625 177.83203125 C19.12164456 176.21256052 19.04869865 174.59094644 19.01171875 172.96875 C18.43775736 153.72250007 17.58755135 131.68951631 5.22265625 115.83203125 C-1.23522127 109.81529907 -6.57840903 108.31878524 -15.3671875 108.4453125 C-24.53017298 109.48441395 -30.02334185 115.81699878 -35.80419922 122.4375 C-38.91378638 125.98878359 -42.06218399 128.72060099 -45.921875 131.39453125 C-49.80724604 134.40467134 -53.56839668 138.41413712 -55.77734375 142.83203125 C-56.60234375 143.18265625 -57.42734375 143.53328125 -58.27734375 143.89453125 C-69.05568625 149.18105162 -75.01938785 160.86969946 -80.77734375 170.83203125 C-81.421875 171.92515625 -82.06640625 173.01828125 -82.73046875 174.14453125 C-111.9044486 226.11834409 -128.97966941 286.71054333 -148.87109375 342.59375 C-149.12334213 343.30078064 -149.37559052 344.00781128 -149.63548279 344.73626709 C-151.4149868 349.7468153 -153.11117361 354.78272633 -154.77734375 359.83203125 C-155.10734375 359.83203125 -155.43734375 359.83203125 -155.77734375 359.83203125 C-155.86884283 319.7710033 -155.93935375 279.70998894 -155.98160507 239.64887743 C-155.98660806 234.92233087 -155.99178534 230.19578453 -155.99707031 225.46923828 C-155.99811955 224.52824387 -155.9991688 223.58724946 -156.00024983 222.61774006 C-156.01766847 207.36910773 -156.04921417 192.12053554 -156.08595493 176.87193891 C-156.1233238 161.23255173 -156.14557101 145.59319611 -156.15369773 129.95376611 C-156.15919393 120.29864772 -156.17657065 110.64369932 -156.20900962 100.98863325 C-156.23010749 94.373254 -156.23655455 87.75796299 -156.23134926 81.14255252 C-156.22878008 77.32228761 -156.23279604 73.5023203 -156.25416565 69.68210793 C-156.27713906 65.54509794 -156.26932469 61.4087264 -156.25836182 57.27166748 C-156.27001318 56.05767013 -156.28166455 54.84367279 -156.29366899 53.59288764 C-156.28570479 52.48765384 -156.2777406 51.38242004 -156.26953506 50.24369431 C-156.27105395 49.28831795 -156.27257283 48.3329416 -156.27413774 47.34861445 C-155.62436869 44.05711353 -154.39919647 42.86629471 -151.77734375 40.83203125 C-149.14801659 40.45942365 -146.94148115 40.32712306 -144.31835938 40.38134766 C-143.57317551 40.38064774 -142.82799164 40.37994781 -142.06022644 40.37922668 C-140.44565682 40.37994294 -138.83107166 40.38964293 -137.21659851 40.40730667 C-134.66082985 40.43382999 -132.1062972 40.43388798 -129.55041504 40.42660522 C-122.28585355 40.41094353 -115.02172298 40.44536816 -107.75732422 40.4921875 C-103.31101557 40.51901877 -98.86544855 40.51691377 -94.41911316 40.49772263 C-92.72540598 40.49663989 -91.03165059 40.50711377 -89.33808899 40.52934647 C-86.96999616 40.56033852 -84.60452623 40.55486602 -82.23632812 40.54150391 C-81.53698654 40.560009 -80.83764496 40.5785141 -80.11711121 40.59757996 C-77.89845479 40.62427242 -77.89845479 40.62427242 -74.77734375 39.83203125 C-72.37846647 37.03164808 -72.37846647 37.03164808 -70.77734375 33.83203125 C-64.58376634 26.9688779 -57.24074892 21.2663813 -47.71337891 20.71191406 C-42.73041301 20.58237606 -37.75869484 20.67761509 -32.77734375 20.83203125 C-32.64585937 19.57648437 -32.514375 18.3209375 -32.37890625 17.02734375 C-31.66698394 10.22918366 -27.55930908 6.35678375 -22.55859375 2.12890625 C-16.14214446 -2.54271911 -7.31850274 -3.07768259 0 0 Z " fill="#F0F0F0" transform="translate(259.77734375,10.16796875)"/>
<path d="M0 0 C0.33 0 0.66 0 1 0 C1.11439161 39.53441619 1.20252152 79.06881085 1.25532665 118.60335941 C1.26158034 123.2685322 1.26805194 127.93370466 1.2746582 132.59887695 C1.27596976 133.5276466 1.27728131 134.45641624 1.2786326 135.41333041 C1.30040169 150.46084354 1.33983148 165.50826136 1.38576398 180.55571791 C1.43248681 195.99057548 1.46028655 211.42538307 1.47044247 226.86030847 C1.47731031 236.38802299 1.49901791 245.91546815 1.53958233 255.44309977 C1.56596921 261.97252931 1.57401022 268.50181917 1.56750689 275.03129818 C1.56429762 278.80112353 1.56928945 282.57047752 1.59602737 286.3402195 C1.62478487 290.42444493 1.61496578 294.50766146 1.60127258 298.59196472 C1.61583679 299.78748543 1.630401 300.98300615 1.64540654 302.21475476 C1.60238489 306.93942143 1.51988984 310.08353186 -0.83536243 314.23539925 C-5.59457237 316.88913297 -9.86713468 316.69392134 -15.23547363 316.64164734 C-16.38369614 316.65015286 -17.53191865 316.65865838 -18.71493578 316.66742164 C-21.89814309 316.68585049 -25.08041008 316.68185391 -28.26361299 316.66828239 C-31.69793426 316.65903064 -35.13211001 316.67851593 -38.56639099 316.69425964 C-45.29253297 316.72035657 -52.01840775 316.71925621 -58.7445811 316.70822146 C-64.21069205 316.69966565 -69.67672565 316.70049172 -75.14283752 316.70801735 C-76.30947069 316.70959968 -76.30947069 316.70959968 -77.4996722 316.71121398 C-79.0796329 316.71338489 -80.65959357 316.71557166 -82.23955423 316.71777413 C-97.05732443 316.73720743 -111.87494465 316.72520259 -126.69270259 316.70298818 C-139.4090114 316.68473552 -152.1250299 316.69564264 -164.84130859 316.72729492 C-179.60580049 316.76404332 -194.37011106 316.7810845 -209.1346488 316.76788265 C-210.70882 316.76654153 -212.28299122 316.76523255 -213.85716248 316.76395607 C-214.63169896 316.7633254 -215.40623545 316.76269474 -216.20424274 316.76204496 C-221.66425756 316.75901585 -227.12413576 316.77028611 -232.5841217 316.78720665 C-239.23748172 316.8075147 -245.89043193 316.80668827 -252.54377043 316.77857425 C-255.93901869 316.7647849 -259.3335512 316.76065176 -262.72877312 316.78252411 C-266.40805241 316.80109028 -270.08534764 316.78290342 -273.76452637 316.75517273 C-275.37759887 316.7762724 -275.37759887 316.7762724 -277.02325869 316.79779834 C-284.04619036 316.69071452 -284.04619036 316.69071452 -286.77946824 314.71137333 C-289.67468674 311.39775012 -290.61856287 308.70155692 -290.56762695 304.36181641 C-290.5672493 303.28114899 -290.56687164 302.20048157 -290.56648254 301.08706665 C-290.5277729 299.3617421 -290.5277729 299.3617421 -290.48828125 297.6015625 C-290.48120651 296.41146576 -290.47413177 295.22136902 -290.46684265 293.99520874 C-290.43891643 290.20449234 -290.37617573 286.4152679 -290.3125 282.625 C-290.28741509 280.05080262 -290.26460227 277.47658203 -290.24414062 274.90234375 C-290.18909521 268.60105585 -290.10548418 262.30063453 -290 256 C-288.90816406 256.03738281 -287.81632812 256.07476562 -286.69140625 256.11328125 C-282.86335971 255.99580681 -281.27390694 255.4072365 -278.4609375 252.83984375 C-276.58501719 250.47738796 -275.39207147 247.95486895 -274.0625 245.25 C-272.578125 242.3359375 -272.578125 242.3359375 -271 240 C-267.3125 238.875 -267.3125 238.875 -264 239 C-260.95135465 238.34297357 -260.95135465 238.34297357 -259.94140625 236.2578125 C-259.28260244 234.67777682 -258.64636858 233.08822743 -258.02734375 231.4921875 C-256.88314847 228.7444784 -255.77447746 226.39597319 -254 224 C-251.8828125 223.22265625 -251.8828125 223.22265625 -249.5625 222.9375 C-246.90469517 222.57347723 -245.42257238 222.36090512 -243.3671875 220.60546875 C-232.76311198 205.9162166 -228.21059842 185.30249942 -222.36328125 168.32006836 C-219.23029031 159.24103489 -215.97997792 150.22033315 -212.578125 141.23828125 C-207.6322268 128.16608034 -203.10422755 114.96175965 -198.59552002 101.73376465 C-191.37909078 80.6029157 -191.37909078 80.6029157 -187.19921875 70.67578125 C-186.91080612 69.98854477 -186.62239349 69.30130829 -186.32524109 68.59324646 C-186.04654678 67.92962601 -185.76785248 67.26600555 -185.48071289 66.58227539 C-180.90385386 55.6776991 -177.99961411 46.92809213 -179.58447266 34.97802734 C-180.65240845 26.12762162 -177.13487703 20.00736978 -172 13 C-170.39453125 11.1015625 -170.39453125 11.1015625 -169 10 C-166.4375 10 -166.4375 10 -164 11 C-162.21655222 14.57646469 -161.56126004 18.02176228 -161.03515625 21.9609375 C-160.79744507 23.7253418 -160.79744507 23.7253418 -160.55493164 25.52539062 C-160.31117798 27.43094727 -160.31117798 27.43094727 -160.0625 29.375 C-159.97596161 30.03814209 -159.88942322 30.70128418 -159.80026245 31.38452148 C-158.37391869 42.32888863 -157.23388997 53.28896425 -156.21069336 64.27856445 C-153.25074317 95.9455497 -149.75848117 127.57704255 -145.27416992 159.06622314 C-145.01895653 160.86629572 -144.76996999 162.6672481 -144.52148438 164.46826172 C-142.95658259 175.59664368 -140.59369603 186.175564 -137.125 196.875 C-136.80942139 197.85645996 -136.49384277 198.83791992 -136.16870117 199.84912109 C-132.42380615 210.73909172 -126.79510241 219.2935805 -116.5625 224.875 C-110.20599684 226.88231679 -105.98455311 226.71275302 -100 224 C-94.75070099 221.16166935 -90.97607876 217.38894473 -87 213 C-82.89277047 208.79008973 -78.67630911 204.58207342 -74 201 C-73.34 201 -72.68 201 -72 201 C-71.73445312 200.42894531 -71.46890625 199.85789062 -71.1953125 199.26953125 C-69.93825542 196.88276602 -68.48285325 194.8524931 -66.875 192.6875 C-57.02399311 178.63204275 -51.07683174 162.94306545 -45 147 C-44.4421582 145.5452124 -44.4421582 145.5452124 -43.87304688 144.06103516 C-39.73507871 133.2073174 -36.0977122 122.31794356 -33.00683594 111.12011719 C-31.82407969 106.83974346 -30.59456691 102.64979502 -29 98.5 C-26.67487374 92.44116476 -25.02727228 86.19540053 -23.27905273 79.95214844 C-21.83564656 74.82988848 -20.3000819 69.77984233 -18.5625 64.75 C-15.23840716 55.01211265 -12.61391668 45.07361981 -9.87744141 35.15820312 C-8.52931258 30.3058396 -7.14077421 25.46528047 -5.75 20.625 C-3.78181876 13.7636569 -1.84128481 6.89674223 0 0 Z " fill="#F0F0F0" transform="translate(393,160)"/>
<path d="M0 0 C1.3076683 0.01078583 1.3076683 0.01078583 2.64175415 0.02178955 C3.55888184 0.0214975 4.47600952 0.02120544 5.42092896 0.02090454 C8.46191771 0.0223014 11.5026635 0.03787932 14.54360962 0.05352783 C16.64825303 0.0572567 18.75289818 0.06010426 20.85754395 0.06210327 C26.40439626 0.06974969 31.95114429 0.08940683 37.49795532 0.11151123 C43.15508615 0.13194796 48.81223379 0.14110033 54.46939087 0.15118408 C65.57490551 0.17265177 76.68034265 0.20679985 87.78579712 0.24884033 C86.41969453 4.00444455 84.82939943 6.62660874 81.78579712 9.24884033 C76.03093994 10.59972319 70.34334746 10.36438808 64.46157837 10.24102783 C62.75098114 10.2390622 61.04037368 10.24149835 59.32978821 10.24813843 C54.83718111 10.25575538 50.34660103 10.21233916 45.85440063 10.15551758 C38.65480123 10.07276906 31.45480814 10.06621013 24.25481224 10.0624733 C21.73999601 10.05362779 19.22622944 10.02218674 16.71165466 9.98733521 C15.17427874 9.97750205 13.63689978 9.96812844 12.09951782 9.95928955 C11.39972305 9.94371506 10.69992828 9.92814056 9.97892761 9.91209412 C6.31848872 9.88393554 6.31848872 9.88393554 3.10614318 11.44138938 C1.31546391 13.89268987 1.41302706 15.48287185 1.41665363 18.50622082 C1.41068049 19.60249678 1.40470734 20.69877274 1.39855319 21.82826918 C1.40729172 23.03739748 1.41603024 24.24652577 1.42503357 25.49229431 C1.42247029 26.77300947 1.41990702 28.05372464 1.41726607 29.37324935 C1.41054081 32.93526512 1.42258154 36.49701155 1.43760026 40.05899298 C1.45052712 43.89742198 1.44617354 47.73583516 1.44389343 51.57427979 C1.44231857 58.22700806 1.45174996 64.87964824 1.46860695 71.53235435 C1.49296361 81.15109656 1.5007988 90.76979606 1.50457092 100.38856576 C1.51114065 115.99346335 1.53111594 131.59831396 1.55947876 147.20318604 C1.58700585 162.36399093 1.60824603 177.52478308 1.6210022 192.68560791 C1.62179037 193.61974936 1.62257854 194.5538908 1.62339059 195.51633956 C1.62730564 200.20254188 1.63109678 204.88874429 1.6348263 209.57494676 C1.66593844 248.46627752 1.71878841 287.35755583 1.78579712 326.24884033 C2.09457448 325.31788512 2.40335184 324.38692991 2.72148609 323.42776394 C3.88926824 319.90819841 5.05892169 316.38925696 6.22908497 312.87048244 C6.73119861 311.35975589 7.23283312 309.84887 7.73394108 308.33780956 C12.24418661 294.73929216 17.01610211 281.25405358 21.97329712 267.81134033 C22.79178406 265.58276029 23.61022379 263.35416291 24.42861938 261.12554932 C72.17442622 131.33267001 72.17442622 131.33267001 95.78579712 112.24884033 C98.02407837 111.53009033 98.02407837 111.53009033 99.78579712 111.24884033 C99.46868774 111.82247314 99.15157837 112.39610596 98.82485962 112.98712158 C97.46804462 115.45712458 96.12651862 117.93507753 94.78677368 120.41436768 C93.75710011 122.30143285 92.70522225 124.17505883 91.65298462 126.04962158 C63.69073835 176.64571657 46.63160692 234.53874806 27.32876587 288.75274658 C26.81307037 290.20031342 26.81307037 290.20031342 26.28695679 291.67712402 C24.71234416 296.09851325 23.14110267 300.52102415 21.57827759 304.94659424 C18.55442906 313.48345223 15.38471347 321.93155785 11.96524048 330.31842041 C10.09504959 334.96505699 9.53892827 338.60701281 9.41079712 343.62384033 C9.36181274 344.93094971 9.31282837 346.23805908 9.26235962 347.58477783 C10.0388897 353.0204884 12.95836703 354.81653026 17.09829712 358.06134033 C17.65517212 358.45321533 18.21204712 358.84509033 18.78579712 359.24884033 C16.07999256 365.55822792 13.23762764 372.05537895 6.78579712 375.24884033 C4.78616724 375.28731581 2.78536198 375.29055799 0.78579712 375.24884033 C0.68435418 382.70518369 0.61431327 390.16134899 0.56607056 397.6182251 C0.54595871 400.15475108 0.51866551 402.69123073 0.48403931 405.2276001 C0.4355047 408.87411944 0.41282349 412.52002562 0.39517212 416.16680908 C0.36420441 417.8670649 0.36420441 417.8670649 0.33261108 419.60166931 C0.33230896 420.66239151 0.33200684 421.72311371 0.33169556 422.815979 C0.32281311 423.74641525 0.31393066 424.6768515 0.30477905 425.63548279 C0.99146655 429.36623651 1.92629786 430.69956708 4.78579712 433.24884033 C8.48068437 434.02038347 12.14518719 433.91830243 15.90774536 433.87702942 C17.05581901 433.88412381 18.20389266 433.89121819 19.38675642 433.89852756 C22.57417384 433.91310023 25.76062891 433.90519805 28.94800353 433.88780463 C32.3850295 433.87445161 35.8219419 433.88986021 39.25895691 433.90162659 C45.99227411 433.92002317 52.72530148 433.91147759 59.4586097 433.89353836 C64.92999262 433.87952296 70.40129677 433.87561726 75.87269592 433.87898064 C77.03996541 433.8796968 77.03996541 433.8796968 78.2308161 433.88042743 C79.81158405 433.88145374 81.39235199 433.8825091 82.97311991 433.88359319 C96.95679824 433.89216433 110.94033647 433.8754719 124.92398071 433.84576416 C138.49858485 433.81692572 152.07298716 433.80984265 165.64761353 433.82525635 C180.4230615 433.84201053 195.19841361 433.84606074 209.97386408 433.82854599 C211.54887548 433.82670156 213.12388689 433.82486684 214.69889832 433.82304192 C215.86135659 433.82167378 215.86135659 433.82167378 217.04729888 433.82027801 C222.51324354 433.81466773 227.97914148 433.81798436 233.44508362 433.82458687 C240.10465397 433.8323117 246.7640255 433.82559837 253.42355573 433.80041183 C256.82257563 433.78789676 260.2212857 433.78179416 263.62031746 433.79295349 C267.30182378 433.80159784 270.98241902 433.78577566 274.66384888 433.76350403 C275.7428255 433.7717448 276.82180213 433.77998556 277.93347502 433.78847605 C279.40997235 433.77190452 279.40997235 433.77190452 280.91629791 433.75499821 C282.19118411 433.75321098 282.19118411 433.75321098 283.49182558 433.75138766 C286.67187066 433.05472551 287.84739014 431.83207005 289.78579712 429.24884033 C290.37582229 426.72870214 290.37582229 426.72870214 290.27684593 423.9326582 C290.28459333 422.84857526 290.29234072 421.76449232 290.30032289 420.64755839 C290.28254319 418.86176835 290.28254319 418.86176835 290.2644043 417.03990173 C290.26767215 415.77456016 290.27094001 414.50921858 290.27430689 413.20553333 C290.28294961 409.69010071 290.26674646 406.1751498 290.24664831 402.65978014 C290.22938192 398.86864473 290.23526704 395.07754024 290.23860168 391.28637695 C290.24146432 384.7117257 290.23037187 378.13721726 290.2105217 371.56259727 C290.18229572 362.03173222 290.18180343 352.50101424 290.18920477 342.97011743 C290.20104199 327.47422596 290.19944169 311.97837186 290.18521118 296.48248291 C290.18436593 295.55471563 290.18352067 294.62694835 290.18264981 293.67106692 C290.17294466 283.34399908 290.16000534 273.0169394 290.1434021 262.68988037 C290.13744553 258.95733648 290.1315175 255.22479255 290.12564087 251.49224854 C290.12418455 250.57137409 290.12272823 249.65049964 290.12122779 248.7017199 C290.09749727 233.2869535 290.0972189 217.87228306 290.11491454 202.45750934 C290.12481822 192.9663851 290.11495574 183.47569476 290.07880773 173.98463211 C290.05544193 167.4597478 290.05400726 160.93508237 290.06901143 154.41017457 C290.0769226 150.65827606 290.07555269 146.90705039 290.04702187 143.1552372 C289.90959528 124.02318822 291.55779986 106.80701402 298.45734215 88.83660412 C299.81571023 85.16805388 300.18895429 82.45172296 300.16079712 78.56134033 C300.16853149 77.48497314 300.17626587 76.40860596 300.18423462 75.29962158 C299.72424466 71.77754162 299.0159562 70.01066181 296.78579712 67.24884033 C294.80796489 66.20568183 292.80920012 65.20059676 290.78579712 64.24884033 C290.77699776 63.30043526 290.77699776 63.30043526 290.76802063 62.33287048 C290.70417725 55.76297742 290.61978131 49.19357833 290.52334595 42.62408447 C290.49005385 40.17102565 290.46203542 37.71788942 290.43936157 35.26470947 C290.40589483 31.74215656 290.35358197 28.22031569 290.29751587 24.69805908 C290.28793098 23.04794075 290.28793098 23.04794075 290.27815247 21.36448669 C290.25835831 20.34365494 290.23856415 19.32282318 290.21817017 18.27105713 C290.20706711 17.37170944 290.19596405 16.47236176 290.18452454 15.54576111 C289.92648024 13.23746726 289.92648024 13.23746726 288.70440674 11.45304871 C285.72428158 9.58258395 283.14383897 9.91649389 279.65567017 9.95928955 C278.57219299 9.96568703 278.57219299 9.96568703 277.46682739 9.97221375 C275.89860067 9.98251537 274.33040595 9.99921585 272.76230431 10.0215416 C270.27758923 10.05378643 267.7938577 10.06248784 265.3089447 10.06381226 C258.24454511 10.06942444 251.1809423 10.09846852 244.11709595 10.19024658 C239.7948773 10.24471548 235.4743967 10.25533173 231.15189552 10.23810196 C229.50721824 10.24004281 227.86247266 10.25848166 226.21817589 10.29391098 C213.29563297 10.5643497 213.29563297 10.5643497 209.409729 7.17858887 C207.88058699 4.90970436 206.73720832 2.80843517 205.78579712 0.24884033 C218.00731745 0.20257491 230.22881708 0.16700068 242.45040703 0.14521599 C248.12489787 0.13476239 253.79932896 0.1205745 259.4737854 0.09796143 C264.94617427 0.07628917 270.41850553 0.0642836 275.89093399 0.05908585 C277.98260531 0.05537996 280.07427335 0.0481437 282.16592026 0.03738022 C285.08729711 0.02293992 288.00843351 0.02085925 290.92984009 0.02178955 C291.80161896 0.014599 292.67339783 0.00740845 293.57159424 0 C299.5576928 0.02073601 299.5576928 0.02073601 301.78579712 2.24884033 C301.98269456 4.68313462 302.05358371 7.00362869 302.0374794 9.43907928 C302.04038628 10.19211407 302.04329316 10.94514886 302.04628813 11.72100288 C302.05364753 14.2706851 302.04661737 16.82013112 302.0397644 19.36981201 C302.04206649 21.20565016 302.04524132 23.04148739 302.04921889 24.87732267 C302.05761015 29.94266791 302.05342208 35.00793832 302.04724646 40.07328391 C302.04274058 45.52801265 302.04969642 50.98272809 302.0552063 56.43745422 C302.06412197 67.13139798 302.06216864 77.82531374 302.05638102 88.51925862 C302.05187305 97.20674503 302.05124786 105.89422357 302.05342865 114.58171082 C302.05373512 115.81589814 302.05404158 117.05008547 302.05435733 118.32167241 C302.05499675 120.82852288 302.05564518 123.33537335 302.05630252 125.84222382 C302.06184926 148.70403217 302.05608698 171.56582782 302.04561732 194.42763346 C302.0361256 215.31286817 302.03697483 236.19807849 302.04653931 257.08331299 C302.05724068 280.52965808 302.0614628 303.97599152 302.05531478 327.42233896 C302.05467765 329.92021592 302.05404891 332.41809288 302.05342865 334.91596985 C302.0531201 336.14512752 302.05281155 337.37428519 302.05249365 338.64069006 C302.05076331 347.32257172 302.05368907 356.00444475 302.05838776 364.68632507 C302.06398408 375.25970145 302.06250656 385.83304811 302.05182627 396.40642107 C302.04655266 401.80605987 302.04454138 407.20564906 302.05112457 412.60528755 C302.05705141 417.54104199 302.05386341 422.47670045 302.04316947 427.41244608 C302.04092148 429.20514123 302.0421027 430.99784436 302.04692104 432.79053444 C302.05293722 435.21334135 302.0468319 437.6358125 302.0374794 440.05860138 C302.04216173 440.76670938 302.04684407 441.47481738 302.05166829 442.20438319 C302.01409788 447.02053958 302.01409788 447.02053958 299.78579712 449.24884033 C297.57762051 449.49953866 297.57762051 449.49953866 294.76637268 449.50052261 C293.69770494 449.50573811 292.62903719 449.5109536 291.52798557 449.51632714 C290.34454532 449.5118657 289.16110506 449.50740426 287.94180298 449.50280762 C286.69193824 449.5059276 285.4420735 449.50904758 284.15433407 449.51226211 C280.67379624 449.52064666 277.19336744 449.51646835 273.71282911 449.51028967 C269.96363538 449.50578106 266.21446094 449.51274099 262.465271 449.51824951 C255.1161452 449.52716225 247.76706017 449.52521316 240.41793275 449.51942423 C234.44736028 449.51491512 228.47679927 449.51429157 222.50622559 449.51647186 C221.23360742 449.51693156 221.23360742 449.51693156 219.93527979 449.51740055 C218.21197231 449.51803997 216.48866484 449.5186884 214.76535738 449.51934573 C198.59002225 449.52505453 182.41470975 449.51848252 166.23937833 449.507745 C152.34761336 449.49880899 138.4558818 449.50036088 124.56411743 449.50958252 C108.44831192 449.52027546 92.33252628 449.52450516 76.21671772 449.51835799 C74.49960137 449.51772087 72.78248501 449.51709212 71.06536865 449.51647186 C70.22042231 449.51616331 69.37547597 449.51585476 68.50492519 449.51553686 C62.53863833 449.51380698 56.57236402 449.51673131 50.6060791 449.52143097 C43.33930912 449.52702897 36.07258237 449.52554621 28.80581737 449.51486948 C25.09524324 449.50959814 21.38474129 449.50758074 17.67416763 449.51416779 C13.65931212 449.52118742 9.64464031 449.5128297 5.62979126 449.50280762 C4.446351 449.50726906 3.26291075 449.5117305 2.04360867 449.51632714 C0.97494092 449.51111165 -0.09372683 449.50589615 -1.19477844 449.50052261 C-2.12249022 449.50019791 -3.05020201 449.4998732 -4.00602627 449.49953866 C-6.21420288 449.24884033 -6.21420288 449.24884033 -8.21420288 447.24884033 C-8.49477863 444.70028973 -8.49477863 444.70028973 -8.53800964 441.36790466 C-8.5588669 440.08484877 -8.57972416 438.80179287 -8.60121346 437.47985649 C-8.61427755 436.01898405 -8.62693891 434.55810797 -8.63925171 433.097229 C-8.65917952 431.52032815 -8.67970318 429.94343474 -8.70075798 428.36654854 C-8.7567853 423.87779014 -8.79731549 419.38900026 -8.8341558 414.90004754 C-8.85901547 411.94587622 -8.88723812 408.99175261 -8.91617775 406.03761864 C-9.59292914 335.33702566 -9.17720619 264.62463519 -8.96308424 193.92257331 C-8.91346113 177.472744 -8.87481581 161.02290839 -8.84083857 144.57303999 C-8.80546974 127.50009506 -8.76277033 110.42718288 -8.71208316 93.35427636 C-8.68396614 83.83842025 -8.65876713 74.32257836 -8.64142418 64.80669594 C-8.62672668 56.78088046 -8.60519141 48.75512033 -8.57454904 40.72934923 C-8.55914138 36.64348299 -8.54699591 32.5576741 -8.54344749 28.47177887 C-8.54012572 24.74054789 -8.52772551 21.00946526 -8.50785575 17.27828672 C-8.49962807 15.28099561 -8.50127672 13.2836715 -8.50320071 11.28636438 C-8.49511852 10.11358003 -8.48703633 8.94079569 -8.47870922 7.73247242 C-8.47588883 6.71435217 -8.47306843 5.69623191 -8.47016257 4.64725953 C-7.90967662 -0.60466222 -4.45626556 0.01543663 0 0 Z " fill="#0370D2" transform="translate(103.21420288085938,41.75115966796875)"/>
<path d="M0 0 C7.46303322 4.8304824 11.01470311 10.31803012 13.22265625 18.83203125 C13.22265625 19.49203125 13.22265625 20.15203125 13.22265625 20.83203125 C14.310625 20.77402344 15.39859375 20.71601563 16.51953125 20.65625 C28.87538913 20.19214711 37.85302742 21.88538322 47.66015625 30.01953125 C53.00935544 35.16233047 56.91681675 41.4412489 58.22265625 48.83203125 C58.22265625 51.14203125 58.22265625 53.45203125 58.22265625 55.83203125 C13.01265625 55.83203125 -32.19734375 55.83203125 -78.77734375 55.83203125 C-77.47724846 45.43126894 -74.80090784 35.91507393 -66.55078125 28.953125 C-55.46485497 20.73306511 -46.12212331 20.4183584 -32.77734375 20.83203125 C-32.64585937 19.57648437 -32.514375 18.3209375 -32.37890625 17.02734375 C-31.66698394 10.22918366 -27.55930908 6.35678375 -22.55859375 2.12890625 C-16.14214446 -2.54271911 -7.31850274 -3.07768259 0 0 Z " fill="#FBBF31" transform="translate(259.77734375,10.16796875)"/>
<path d="M0 0 C2.4375 1 2.4375 1 3.52954102 3.18994141 C4.48183231 6.13720486 4.99239385 8.89145854 5.40234375 11.9609375 C5.56081787 13.13720703 5.71929199 14.31347656 5.88256836 15.52539062 C6.0450708 16.79576172 6.20757324 18.06613281 6.375 19.375 C6.46153839 20.03814209 6.54807678 20.70128418 6.63723755 21.38452148 C8.06358131 32.32888863 9.20361003 43.28896425 10.22680664 54.27856445 C13.18675683 85.9455497 16.67901883 117.57704255 21.16333008 149.06622314 C21.41854347 150.86629572 21.66753001 152.6672481 21.91601562 154.46826172 C23.48091741 165.59664368 25.84380397 176.175564 29.3125 186.875 C29.62807861 187.85645996 29.94365723 188.83791992 30.26879883 189.84912109 C34.01466134 200.74190513 39.62889582 209.07195913 49.6875 214.875 C54.67136907 216.37016072 59.27525909 216.25204431 64.4375 216 C60.19906405 223.37119295 53.70866544 230.10114961 45.39453125 232.59375 C38.52752896 234.01923551 33.98464331 233.00770762 27.89453125 229.66796875 C14.91420085 220.85620232 9.54625437 203.63485162 6.53588867 188.86425781 C5.71968054 184.48686267 5.04012077 180.08996053 4.375 175.6875 C4.12010994 174.05668496 3.86497784 172.42590774 3.60961914 170.79516602 C1.34349746 156.12557693 -0.42996429 141.41080937 -2.04736328 126.65771484 C-2.60588279 121.5783 -3.19109008 116.50205832 -3.77734375 111.42578125 C-6.03600527 91.82609972 -8.21856228 72.22067487 -10.21875 52.59277344 C-10.36806574 51.13862829 -10.51779483 49.68452552 -10.66796875 48.23046875 C-10.73954193 47.53684235 -10.81111511 46.84321594 -10.88485718 46.12857056 C-11.51292664 40.18497235 -12.32277146 34.2738626 -13.1887207 28.3605957 C-14.29191569 18.44192881 -14.29191569 18.44192881 -11.91796875 14.140625 C-11.57056641 13.49996094 -11.22316406 12.85929688 -10.86523438 12.19921875 C-10.49720703 11.55597656 -10.12917969 10.91273438 -9.75 10.25 C-9.39357422 9.59128906 -9.03714844 8.93257812 -8.66992188 8.25390625 C-4.10767146 0 -4.10767146 0 0 0 Z " fill="#03FEFE" transform="translate(226.5625,170)"/>
<path d="M0 0 C10.56189519 6.38160825 15.15090339 18.11726391 18.00390625 29.59375 C20.12284742 39.50879548 20.79707878 49.21671536 21.16503906 59.3137207 C21.53498105 68.35699768 22.44948196 77.31490363 23.40478516 86.3125 C24.13389959 93.28708933 24.78347681 100.25457848 25.27734375 107.25 C26.56150603 125.33199595 28.32302467 143.27362457 30.6875 161.25 C30.8823851 162.73935059 30.8823851 162.73935059 31.08120728 164.25878906 C31.45619851 167.10558641 31.83763456 169.9514182 32.22265625 172.796875 C32.33405945 173.63079773 32.44546265 174.46472046 32.5602417 175.32391357 C33.25594703 180.35911421 34.16020085 185.30772717 35.24938965 190.27330017 C36.5342941 197.89049314 33.22916187 205.15631857 30.6875 212.1875 C30.32720703 213.20650391 29.96691406 214.22550781 29.59570312 215.27539062 C28.01767173 219.71887129 26.39646503 224.12953498 24.625 228.5 C23.965 228.5 23.305 228.5 22.625 228.5 C19.59800731 220.8855736 17.55240812 213.43672906 16.125 205.375 C15.91560791 204.20598145 15.70621582 203.03696289 15.49047852 201.83251953 C9.50997519 167.33957477 7.35574841 132.30474032 4.8125 97.4296875 C3.12075648 72.86124565 3.12075648 72.86124565 -0.375 48.5 C-0.58769531 47.34757812 -0.80039062 46.19515625 -1.01953125 45.0078125 C-3.38906273 34.11628182 -7.71007523 23.71981671 -17.375 17.5 C-21.54547661 15.36494371 -25.03788218 15.28809126 -29.6875 15.375 C-30.94175781 15.39304688 -32.19601563 15.41109375 -33.48828125 15.4296875 C-34.44089844 15.45289063 -35.39351562 15.47609375 -36.375 15.5 C-28.95941187 2.60332499 -14.91216663 -6.55319822 0 0 Z " fill="#FE0303" transform="translate(258.375,119.5)"/>
<path d="M0 0 C1.3076683 0.01078583 1.3076683 0.01078583 2.64175415 0.02178955 C3.55888184 0.0214975 4.47600952 0.02120544 5.42092896 0.02090454 C8.46191771 0.0223014 11.5026635 0.03787932 14.54360962 0.05352783 C16.64825303 0.0572567 18.75289818 0.06010426 20.85754395 0.06210327 C26.40439626 0.06974969 31.95114429 0.08940683 37.49795532 0.11151123 C43.15508615 0.13194796 48.81223379 0.14110033 54.46939087 0.15118408 C65.57490551 0.17265177 76.68034265 0.20679985 87.78579712 0.24884033 C86.41969453 4.00444455 84.82939943 6.62660874 81.78579712 9.24884033 C76.03093994 10.59972319 70.34334746 10.36438808 64.46157837 10.24102783 C62.75098114 10.2390622 61.04037368 10.24149835 59.32978821 10.24813843 C54.83718111 10.25575538 50.34660103 10.21233916 45.85440063 10.15551758 C38.65480123 10.07276906 31.45480814 10.06621013 24.25481224 10.0624733 C21.73999601 10.05362779 19.22622944 10.02218674 16.71165466 9.98733521 C15.17427874 9.97750205 13.63689978 9.96812844 12.09951782 9.95928955 C11.39972305 9.94371506 10.69992828 9.92814056 9.97892761 9.91209412 C6.31910369 9.88428318 6.31910369 9.88428318 3.10589719 11.43930227 C1.31048872 13.90037325 1.41457389 15.50568399 1.42058945 18.53961468 C1.4154498 19.64344043 1.41031015 20.74726619 1.40501475 21.88454121 C1.41944837 23.71104489 1.41944837 23.71104489 1.43417358 25.57444763 C1.43246572 26.8642915 1.43075785 28.15413538 1.42899823 29.48306543 C1.42453218 33.07120463 1.43867988 36.65907028 1.4556706 40.24716318 C1.47066241 44.11452346 1.46828034 47.98187467 1.46769714 51.84925842 C1.46877429 58.55596984 1.48002701 65.2626018 1.49736786 71.96928978 C1.52411785 82.58050761 1.52223196 93.19162944 1.51608276 103.8028717 C1.51435998 107.43434041 1.51287305 111.06580917 1.51149368 114.69727802 C1.51114797 115.60494742 1.51080225 116.51261681 1.51044606 117.44779133 C1.50702279 127.7853667 1.51074983 138.12293648 1.51675415 148.46051025 C1.51729621 149.40563228 1.51783828 150.35075431 1.51839676 151.32451639 C1.52774726 166.61334451 1.55304614 181.90211966 1.58165476 197.19092187 C1.61036585 212.89830814 1.61205246 228.60555709 1.59143853 244.31295568 C1.57977743 253.99370337 1.59037736 263.6739117 1.63005647 273.35458753 C1.65548179 280.00093746 1.65534178 286.6469836 1.63559738 293.29335149 C1.62503545 297.12141252 1.62556282 300.94858233 1.6572361 304.77654648 C1.78059159 320.56577435 1.52197319 333.2226817 -6.21420288 347.24884033 C-6.9528089 349.99699809 -6.9528089 349.99699809 -7.21420288 352.24884033 C-7.54420288 352.24884033 -7.87420288 352.24884033 -8.21420288 352.24884033 C-8.25993776 307.6949578 -8.29520042 263.14107775 -8.31633354 218.58717639 C-8.31883508 213.33230782 -8.32142371 208.0774393 -8.32406616 202.8225708 C-8.32459078 201.77638025 -8.3251154 200.7301897 -8.32565592 199.65229641 C-8.33436873 182.69194147 -8.3501435 165.73160004 -8.36850847 148.77125312 C-8.3871832 131.38035347 -8.39831445 113.9894609 -8.40237987 96.59855163 C-8.40512998 85.85944078 -8.41382927 75.12036808 -8.43003581 64.38126896 C-8.44057277 57.02631375 -8.44381101 49.67137838 -8.44120564 42.31641616 C-8.43991919 38.06713306 -8.44195028 33.81791682 -8.45261383 29.56864548 C-8.46229204 25.68385059 -8.46287347 21.79916801 -8.45600067 17.91436814 C-8.45515029 16.50384165 -8.45773326 15.09330838 -8.46396925 13.68279542 C-8.47191569 11.77555168 -8.46650769 9.86826589 -8.46029854 7.9610157 C-8.46105798 6.89855822 -8.46181742 5.83610073 -8.46259987 4.74144757 C-7.93180399 -0.58496822 -4.53914122 0.01572371 0 0 Z " fill="#0D74D0" transform="translate(103.21420288085938,41.75115966796875)"/>
<path d="M0 0 C4.01255867 2.11984232 6.36422426 3.76928911 8 8 C9.17500229 16.57133253 7.39562674 23.76559311 4.484375 31.7578125 C2.76007623 36.53716831 1.43840937 41.40691602 0.125 46.3125 C-0.12185547 47.22878174 -0.36871094 48.14506348 -0.62304688 49.08911133 C-1.71794757 53.1688701 -2.80142834 57.25163033 -3.88476562 61.33447266 C-4.49494102 63.63242978 -5.10644114 65.93003555 -5.71923828 68.22729492 C-6.30459739 70.4231016 -6.88654311 72.61982234 -7.46435547 74.81762695 C-9.12546817 81.05442162 -11.00701497 87.16995678 -13.08496094 93.28027344 C-14.25839166 96.76800509 -15.2941989 100.276218 -16.3125 103.8125 C-22.34891647 124.591518 -28.82233166 145.24124547 -35.4140625 165.84985352 C-36.95474293 170.67567668 -38.45696275 175.50997261 -39.921875 180.359375 C-46.97725884 203.32618098 -55.43617221 227.00204877 -69 247 C-69.50015625 247.76570312 -70.0003125 248.53140625 -70.515625 249.3203125 C-74.18975598 254.62963365 -78.76270603 258.27570206 -84 262 C-84.66 261.67 -85.32 261.34 -86 261 C-85.52691406 260.22140625 -85.05382812 259.4428125 -84.56640625 258.640625 C-68.04236457 230.68181763 -58.99175679 199.39397772 -49.53338623 168.53625488 C-48.32971361 164.61450993 -47.1184422 160.695113 -45.90820312 156.77539062 C-41.60736136 142.83465709 -37.34096882 128.88433046 -33.17016602 114.90405273 C-32.17842805 111.58398167 -31.16184107 108.27236851 -30.12890625 104.96484375 C-26.64876488 93.81783571 -23.555474 82.62282769 -20.7109375 71.296875 C-18.34202985 61.99197647 -15.55492768 52.84956148 -12.48852539 43.75073242 C-10.0410648 36.20444617 -8.16281172 28.95702091 -11.625 21.5 C-14.30325659 18.68078254 -16.2447503 17.85346584 -20 17 C-19.28714405 11.11893844 -16.71005441 6.58492847 -12.4375 2.625 C-8.28110563 -0.14592958 -4.91952986 -0.41690931 0 0 Z " fill="#FE0405" transform="translate(396,106)"/>
<path d="M0 0 C0.99 0.495 0.99 0.495 2 1 C1.47792969 1.81597656 0.95585937 2.63195312 0.41796875 3.47265625 C-33.87796293 58.16868589 -52.17709623 125.54583135 -73.57421875 186.0703125 C-73.95771988 187.15489998 -73.95771988 187.15489998 -74.34896851 188.26139832 C-75.44868997 191.37540623 -76.54325273 194.4910086 -77.62988281 197.60961914 C-80.14476996 204.78188808 -82.89176013 211.83584439 -85.75024414 218.8762207 C-87.64316501 223.60759842 -88.24462917 227.27048047 -88.375 232.375 C-88.42398438 233.68210937 -88.47296875 234.98921875 -88.5234375 236.3359375 C-87.74690742 241.77164806 -84.82743009 243.56768993 -80.6875 246.8125 C-80.130625 247.204375 -79.57375 247.59625 -79 248 C-81.81932947 254.57410467 -84.60504223 260.33146396 -91 264 C-95.96680052 265.16244268 -99.12236667 263.11134593 -103.265625 260.58203125 C-106.05099863 258.04131881 -106.80590254 255.25652566 -107.37109375 251.59765625 C-107.61600488 242.24781371 -104.3570828 234.34753861 -100.64624023 225.92871094 C-97.03825656 217.7025771 -94.04825853 209.43928082 -91.3125 200.875 C-36.33829822 31.94393771 -36.33829822 31.94393771 -2 1 C-1.34 0.67 -0.68 0.34 0 0 Z " fill="#05FDFE" transform="translate(201,153)"/>
<path d="M0 0 C-2.09467165 10.78139819 -4.55084065 21.3507817 -7.65136719 31.88867188 C-9.53077629 38.29033618 -11.23422482 44.72094812 -12.875 51.1875 C-15.88241372 62.9462167 -19.47359878 74.50312956 -23.09667969 86.08398438 C-24.33625954 90.08548216 -25.5195495 94.10211188 -26.6875 98.125 C-28.4277435 104.10821203 -30.25435387 110.05914118 -32.13232422 116.00048828 C-33.38183825 119.97004604 -34.57374283 123.9513008 -35.72314453 127.95092773 C-38.28791281 136.86811918 -41.16917474 145.66311421 -44.14575195 154.45117188 C-45.65977781 158.92996218 -47.13353662 163.40168326 -48.44140625 167.9453125 C-50.20891544 173.91629068 -52.49584284 179.66167646 -54.8125 185.4375 C-55.22564453 186.49259766 -55.63878906 187.54769531 -56.06445312 188.63476562 C-63.6666101 207.66944218 -63.6666101 207.66944218 -70 213 C-72.75 212.75 -72.75 212.75 -75 212 C-76.16618868 208.50143396 -75.82282367 207.84096565 -74.55078125 204.50390625 C-74.20313721 203.57094727 -73.85549316 202.63798828 -73.49731445 201.67675781 C-72.9108313 200.1352002 -72.9108313 200.1352002 -72.3125 198.5625 C-64.25043722 176.76753278 -56.65792698 154.72204306 -50.484375 132.3125 C-48.61805357 125.55168491 -46.58350515 118.84075465 -44.5625 112.125 C-44.17176975 110.82333073 -43.78106328 109.52165433 -43.39038086 108.2199707 C-41.65484325 102.44526938 -39.90578641 96.67527666 -38.11328125 90.91796875 C-33.89646359 77.34523284 -30.23432785 63.67247332 -26.73730469 49.89746094 C-25.21520171 43.91589865 -23.62348945 37.95486015 -22 32 C-21.66983887 30.75065674 -21.66983887 30.75065674 -21.33300781 29.47607422 C-20.58912738 26.66790074 -19.82704669 23.86511043 -19.0625 21.0625 C-18.83361084 20.1854541 -18.60472168 19.3084082 -18.36889648 18.40478516 C-16.52696744 11.75912041 -13.87863788 6.07054707 -9.125 1 C-6.09011789 -0.42817982 -3.3126889 -0.06148843 0 0 Z " fill="#06FDFE" transform="translate(358,139)"/>
<path d="M0 0 C0.66 0 1.32 0 2 0 C2.34018163 1.70698282 2.6718089 3.41567133 3 5.125 C3.185625 6.07632813 3.37125 7.02765625 3.5625 8.0078125 C4.6931241 15.74047379 2.77852143 20.76527225 -0.125 27.875 C-4.6888543 39.38330693 -8.87691733 50.99316587 -12.9375 62.6875 C-13.53941815 64.41782382 -14.14138762 66.14812978 -14.7434082 67.87841797 C-15.63904235 70.45379308 -16.53431371 73.02929229 -17.42869568 75.60510254 C-20.19787785 83.57908289 -22.99297402 91.54368479 -25.8125 99.5 C-26.03752197 100.13524597 -26.26254395 100.77049194 -26.49438477 101.42498779 C-29.72672799 110.53822147 -33.07098824 119.60335672 -36.51464844 128.63867188 C-38.7544914 134.55471413 -40.88412267 140.50045839 -42.9453125 146.48046875 C-43.33152519 147.59564629 -43.33152519 147.59564629 -43.72554016 148.73335266 C-44.99287767 152.39322696 -46.25014177 156.05589315 -47.48803711 159.72583008 C-49.95713153 166.94110045 -52.72066943 173.91969106 -56.05859375 180.78125 C-56.53341942 181.78013245 -56.53341942 181.78013245 -57.01783752 182.79919434 C-59.07083154 186.87289007 -61.13882988 189.54515546 -65 192 C-68.3125 192.25 -68.3125 192.25 -71 192 C-69.08694812 185.4610647 -67.02605443 178.99724385 -64.77734375 172.56640625 C-64.3254493 171.26712944 -64.3254493 171.26712944 -63.86442566 169.94160461 C-62.89140643 167.14764694 -61.91472499 164.35498919 -60.9375 161.5625 C-60.43171417 160.11366425 -60.43171417 160.11366425 -59.91571045 158.63555908 C-55.73198972 146.65579326 -51.46142624 134.72123877 -46.98339844 122.84814453 C-43.06263807 112.35733267 -39.44482037 101.76513407 -35.80200195 91.175354 C-13.76934483 27.16602062 -13.76934483 27.16602062 0 0 Z " fill="#FE0506" transform="translate(211,192)"/>
<path d="M0 0 C12.22152033 -0.04626542 24.44301996 -0.08183965 36.66460991 -0.10362434 C42.33910075 -0.11407795 48.01353184 -0.12826583 53.68798828 -0.15087891 C59.16037715 -0.17255116 64.63270841 -0.18455674 70.10513687 -0.18975449 C72.19680819 -0.19346037 74.28847623 -0.20069663 76.38012314 -0.21146011 C79.30149999 -0.22590041 82.22263639 -0.22798108 85.14404297 -0.22705078 C86.01582184 -0.23424133 86.88760071 -0.24143188 87.78579712 -0.24884033 C93.77189568 -0.22810432 93.77189568 -0.22810432 96 2 C96.19510366 4.4362726 96.26416509 6.75856323 96.24609566 9.19582558 C96.24840335 9.94945956 96.25071103 10.70309353 96.25308865 11.47956491 C96.25842634 14.03127315 96.24937356 16.58273425 96.24050903 19.13442993 C96.24138033 20.97169281 96.24312991 22.80895545 96.24568737 24.64621675 C96.25017981 29.71542989 96.2421313 34.78455922 96.23213124 39.85376167 C96.22352623 45.31253694 96.2264148 50.77130715 96.22793579 56.23008728 C96.22898652 65.69461825 96.22269036 75.15912173 96.21146011 84.62364578 C96.19523342 98.30790036 96.19000001 111.9921416 96.18748413 125.67640476 C96.18310257 147.87607388 96.16979812 170.07572968 96.15087891 192.27539062 C96.13251751 213.84537683 96.11834662 235.41535911 96.10986328 256.98535156 C96.1094687 257.98223931 96.1094687 257.98223931 96.10906615 258.99926619 C96.10616752 266.33544039 96.10338381 273.67161463 96.10064721 281.0077889 C96.07990036 336.33853606 96.04466232 391.66926733 96 447 C95.67 447 95.34 447 95 447 C94.99902319 446.20840998 94.99804638 445.41681996 94.99703997 444.60124236 C94.93880191 397.71311868 94.86503094 350.82504158 94.77101372 303.93697529 C94.75974519 298.31044143 94.7486068 292.68390732 94.73754883 287.05737305 C94.73534514 285.93720406 94.73314146 284.81703507 94.730871 283.66292157 C94.69547271 265.51153361 94.67062287 247.36014569 94.64965298 229.20873598 C94.62791108 210.59172985 94.59487603 191.97476862 94.55129844 173.35780066 C94.52475394 161.86478884 94.50707919 150.37183298 94.50065396 138.87879201 C94.49540863 131.00377031 94.47922052 123.12881913 94.45433434 115.25383518 C94.44028998 110.70645799 94.43115946 106.15920711 94.43499184 101.61180687 C94.43839213 97.45106924 94.42809492 93.29060176 94.40676448 89.12991949 C94.40147888 87.62244735 94.40128017 86.11494727 94.40660437 84.60747526 C94.4130937 82.56223188 94.39945475 80.51695401 94.38476086 78.47175312 C94.38286225 77.33449073 94.38096365 76.19722834 94.37900752 75.02550346 C93.94938289 71.59593874 93.07926513 69.74161466 91 67 C87.93319201 65.17370206 87.93319201 65.17370206 85 64 C84.99413376 63.36772995 84.98826752 62.7354599 84.98222351 62.08403015 C84.91838013 55.51413708 84.83398419 48.944738 84.73754883 42.37524414 C84.70425674 39.92218531 84.6762383 37.46904909 84.65356445 35.01586914 C84.62009771 31.49331622 84.56778485 27.97147535 84.51171875 24.44921875 C84.50532883 23.34913986 84.4989389 22.24906097 84.49235535 21.11564636 C84.47256119 20.09481461 84.45276703 19.07398285 84.43237305 18.0222168 C84.42126999 17.12286911 84.41016693 16.22352142 84.39872742 15.29692078 C84.14068312 12.98862693 84.14068312 12.98862693 82.91860962 11.20420837 C79.93848446 9.33374362 77.35804185 9.66765356 73.86987305 9.71044922 C72.78639587 9.71684669 72.78639587 9.71684669 71.68103027 9.72337341 C70.11280355 9.73367503 68.54460883 9.75037552 66.97650719 9.77270126 C64.49179211 9.80494609 62.00806058 9.81364751 59.52314758 9.81497192 C52.45874799 9.8205841 45.39514518 9.84962819 38.33129883 9.94140625 C34.00908018 9.99587515 29.68859958 10.0064914 25.3660984 9.98926163 C23.72142112 9.99120248 22.07667554 10.00964133 20.43237877 10.04507065 C7.50983585 10.31550937 7.50983585 10.31550937 3.62393188 6.92974854 C2.09478987 4.66086403 0.95141121 2.55959484 0 0 Z " fill="#187CD6" transform="translate(309,42)"/>
<path d="M0 0 C1.49192194 0.00138269 1.49192194 0.00138269 3.01398373 0.00279331 C4.15126919 0.00141865 5.28855465 0.00004398 6.46030331 -0.00137234 C7.71905773 0.00222294 8.97781216 0.00581821 10.27471066 0.00952244 C11.59158871 0.00937641 12.90846676 0.00923038 14.26525021 0.00907993 C17.88698982 0.00879196 21.5086966 0.01468859 25.13042855 0.02165389 C28.91142598 0.02788753 32.69242409 0.02849124 36.47342587 0.0296793 C43.63805004 0.03279258 50.80265904 0.04100594 57.96727651 0.05102879 C66.12191876 0.06219001 74.27656171 0.0677004 82.43120968 0.07272422 C99.21035107 0.08318855 115.98947717 0.10078794 132.76860714 0.12304783 C132.76860714 2.43304783 132.76860714 4.74304783 132.76860714 7.12304783 C87.55860714 7.12304783 42.34860714 7.12304783 -4.23139286 7.12304783 C-3.07245612 0.16942738 -3.07245612 0.16942738 0 0 Z " fill="#F9AB2E" transform="translate(185.2313928604126,58.876952171325684)"/>
<path d="M0 0 C3.62342508 1.6470114 6.16816086 3.4327343 8 7 C8.50541498 12.30685731 8.51553035 15.73114172 5 20 C0.80392436 22.54090721 -3.21235424 22.71686675 -8 22 C-10.87029869 20.20606332 -12.49131638 19.01736724 -14 16 C-14.67076847 11.76196287 -15.12571636 7.70360637 -12.68359375 4.0078125 C-8.69948551 0.28218108 -5.52925166 -0.92154194 0 0 Z " fill="#EDF0F1" transform="translate(253,17)"/>
<path d="M0 0 C0.46153846 9.07692308 0.46153846 9.07692308 -3 13 C-6.1875 14.3125 -6.1875 14.3125 -9 15 C-11 12 -11 12 -10.875 8.625 C-9.92787122 4.70118079 -8.83240694 2.83240694 -6 0 C-3 -1 -3 -1 0 0 Z " fill="#FEFDFA" transform="translate(261,24)"/>
<path d="M0 0 C5.30461927 1.16701624 9.35985357 2.77239478 13 7 C14.56593661 9.61312641 15.7667799 12.201539 17 15 C13.37 15 9.74 15 6 15 C5.73445313 14.25234375 5.46890625 13.5046875 5.1953125 12.734375 C4.84210938 11.74953125 4.48890625 10.7646875 4.125 9.75 C3.77695312 8.77546875 3.42890625 7.8009375 3.0703125 6.796875 C2.16725355 4.43705673 1.17921582 2.23094884 0 0 Z " fill="#EDF0F1" transform="translate(267,16)"/>
<path d="M0 0 C-0.721875 0.53625 -1.44375 1.0725 -2.1875 1.625 C-6.71254567 5.44614968 -10.15861337 9.30844132 -12 15 C-12.33 15 -12.66 15 -13 15 C-13.55705178 11.0210587 -14.03363375 7.48303973 -11.65234375 4.06640625 C-7.92060752 0.64633151 -5.20534283 -0.76175749 0 0 Z " fill="#FDFCF8" transform="translate(252,17)"/>
</svg>
