<?xml version="1.0" encoding="UTF-8"?>
<svg version="1.1" xmlns="http://www.w3.org/2000/svg" width="500" height="500">
<path d="M0 0 C3.47942501 0.56019478 6.75975487 1.1283059 10.08203125 2.3125 C11.21378784 2.71190796 11.21378784 2.71190796 12.3684082 3.11938477 C13.1749585 3.40998779 13.98150879 3.70059082 14.8125 4 C15.67125732 4.30542725 16.53001465 4.61085449 17.41479492 4.92553711 C19.28258637 5.59104905 21.14949687 6.25903742 23.015625 6.92919922 C26.12268705 8.0440204 29.23302431 9.14935265 32.34375 10.25390625 C50.23096946 16.62645635 50.23096946 16.62645635 58.625 20.0625 C65.61950113 22.91996174 72.73207544 25.36854443 79.87695312 27.82177734 C87.1681644 30.33602924 94.40629236 32.97234654 101.625 35.6875 C103.13984985 36.25549316 103.13984985 36.25549316 104.68530273 36.83496094 C108.84925978 38.40355836 113.0034979 39.98312798 117.1171875 41.6796875 C118.23351562 42.13601563 119.34984375 42.59234375 120.5 43.0625 C121.84578125 43.63677734 121.84578125 43.63677734 123.21875 44.22265625 C131.34856086 46.49489271 137.44953318 44.08714019 145 41.0625 C147.12352414 40.23783364 149.2472276 39.4136289 151.37109375 38.58984375 C152.45890137 38.16300293 153.54670898 37.73616211 154.66748047 37.29638672 C160.11002886 35.17917559 165.58792304 33.15760216 171.0625 31.125 C178.39335837 28.406802 178.39335837 28.406802 185.62109375 25.4296875 C188.91202546 24.03722391 192.20437646 22.90002859 195.59863281 21.79492188 C199.89096043 20.3740375 204.12908385 18.80302241 208.375 17.25 C209.33108154 16.90146973 210.28716309 16.55293945 211.2722168 16.19384766 C216.67381153 14.22272372 222.07040554 12.23840269 227.46313477 10.24316406 C230.54091255 9.10582874 233.62141259 7.97597392 236.70214844 6.84667969 C238.27206925 6.26821758 239.84036533 5.68533176 241.40722656 5.09863281 C243.74717933 4.22268934 246.09173121 3.36022479 248.4375 2.5 C249.49384644 2.0985376 249.49384644 2.0985376 250.5715332 1.68896484 C254.18731977 0.37841436 256.34020139 -0.14934997 260 1 C260.04629419 8.3973076 260.08185426 15.79458407 260.10362434 23.19200706 C260.1140717 26.62675459 260.12824805 30.06140317 260.15087891 33.49609375 C260.17672063 37.44269638 260.18646493 41.38925863 260.1953125 45.3359375 C260.20563507 46.57242035 260.21595764 47.8089032 260.22659302 49.08285522 C260.22674408 50.22388702 260.22689514 51.36491882 260.22705078 52.54052734 C260.231492 53.548685 260.23593323 54.55684265 260.24050903 55.59555054 C260 58 260 58 258 60 C255.79296875 60.52734375 255.79296875 60.52734375 253.1875 60.9375 C248.45049351 61.84400628 244.95348912 62.55652681 241.81640625 66.48046875 C237.93584155 72.77799417 238.17461409 79.84665546 239 87 C240.52453847 92.29919791 243.14059494 96.26658465 248 99 C251.96 99.99 255.92 100.98 260 102 C260 114.87 260 127.74 260 141 C251.00713267 145.49643367 251.00713267 145.49643367 247.40625 146.7109375 C246.61250977 146.98276855 245.81876953 147.25459961 245.00097656 147.53466797 C243.76299316 147.95063232 243.76299316 147.95063232 242.5 148.375 C240.71307093 148.98821329 238.92661693 149.60281259 237.140625 150.21875 C236.26470703 150.52039063 235.38878906 150.82203125 234.48632812 151.1328125 C228.27886977 153.29786475 222.14606412 155.66778817 216 158 C203.71418121 162.65378649 191.42091898 167.25299962 179.00561523 171.55102539 C174.08103908 173.25947108 169.18730244 175.02969287 164.3125 176.875 C163.38606689 177.21942139 163.38606689 177.21942139 162.44091797 177.57080078 C158.20276516 179.14889255 153.99951659 180.80008787 149.80078125 182.48046875 C147.57586373 183.34203186 145.35060252 184.20270793 143.125 185.0625 C142.07868408 185.49353027 141.03236816 185.92456055 139.9543457 186.36865234 C132.55106229 189.18026415 128.2373919 189.09262655 121 186 C119.79859375 185.5978125 118.5971875 185.195625 117.359375 184.78125 C104.71070654 180.29124648 92.11554451 175.65590758 79.51779175 171.02549744 C73.84940218 168.94288016 68.17596445 166.87436828 62.5 164.8125 C61.19011108 164.33623169 61.19011108 164.33623169 59.85375977 163.8503418 C55.36803737 162.22019624 50.88038954 160.59554247 46.390625 158.9765625 C36.91219913 155.55313864 27.46966639 152.06519931 18.09106445 148.3762207 C13.05089426 146.39539049 7.98290883 144.51608681 2.87109375 142.7265625 C1 142 1 142 0 141 C-0.08861992 138.1883662 -0.11522355 135.40141745 -0.09765625 132.58984375 C-0.0962413 131.74780899 -0.09482635 130.90577423 -0.09336853 130.03822327 C-0.08775263 127.33794665 -0.07519748 124.63775172 -0.0625 121.9375 C-0.05748705 120.11132932 -0.05292379 118.28515734 -0.04882812 116.45898438 C-0.03777804 111.97262458 -0.02050279 107.48632616 0 103 C1.44251192 102.51634088 2.88526708 102.03340719 4.328125 101.55078125 C5.1315332 101.28177002 5.93494141 101.01275879 6.76269531 100.7355957 C8.41629428 100.19191459 10.08065379 99.68071592 11.75 99.1875 C16.6319816 96.6108986 19.33093355 92.11105238 21 87 C21.86404601 79.24368004 21.75553349 71.49502067 17 65 C12.56431381 60.96857888 7.75706666 60.58546441 2 60 C0 58 0 58 -0.24050903 55.55758667 C-0.23606781 54.53166412 -0.23162659 53.50574158 -0.22705078 52.44873047 C-0.22689972 51.28767792 -0.22674866 50.12662537 -0.22659302 48.9303894 C-0.21627045 47.67203278 -0.20594788 46.41367615 -0.1953125 45.1171875 C-0.1924826 43.83264679 -0.18965271 42.54810608 -0.18673706 41.22463989 C-0.17909809 37.80837233 -0.15944752 34.39227463 -0.1373291 30.97607422 C-0.11687624 27.49058327 -0.10773655 24.0050649 -0.09765625 20.51953125 C-0.07620175 13.67961769 -0.04206271 6.839817 0 0 Z " fill="#050505" transform="translate(120,257)"/>
<path d="M0 0 C7.12850157 5.80840868 12.66911388 12.26020157 17.53125 20.0625 C18.33755859 21.35027344 18.33755859 21.35027344 19.16015625 22.6640625 C29.38343382 40.85585967 28.94754192 61.51993319 23.53125 81.0625 C21.90042656 85.34112105 19.92538713 89.16675041 17.53125 93.0625 C17.09167969 93.83335937 16.65210938 94.60421875 16.19921875 95.3984375 C6.98620894 110.53220001 -7.79273155 120.78376035 -24.46875 126.0625 C-25.46132813 126.3821875 -26.45390625 126.701875 -27.4765625 127.03125 C-46.1953169 132.20164763 -67.04341133 129.77956104 -84.03515625 120.48828125 C-84.83824219 120.01777344 -85.64132813 119.54726562 -86.46875 119.0625 C-87.5 118.464375 -88.53125 117.86625 -89.59375 117.25 C-94.14274048 113.78881159 -98.33338528 110.0052235 -102.46875 106.0625 C-103.17515625 105.39476562 -103.8815625 104.72703125 -104.609375 104.0390625 C-113.73865689 94.65818623 -119.24542464 81.84662082 -121.46875 69.0625 C-121.66210938 67.97388672 -121.66210938 67.97388672 -121.859375 66.86328125 C-124.60278688 48.48964117 -119.77569235 30.35175217 -109.16015625 15.24609375 C-105.83535229 10.95379487 -102.23721453 6.96764459 -98.46875 3.0625 C-97.87707031 2.4334375 -97.28539062 1.804375 -96.67578125 1.15625 C-70.59329667 -24.17773061 -27.1995424 -20.63413562 0 0 Z " fill="#060606" transform="translate(297.46875,70.9375)"/>
<path d="M0 0 C1.59124276 -0.00322179 3.18248524 -0.00658652 4.77372742 -0.01008606 C8.09614752 -0.01604328 11.41854174 -0.01792947 14.7409668 -0.01733398 C18.96340678 -0.01723251 23.18567809 -0.03088522 27.40807819 -0.04810619 C30.69153074 -0.05931459 33.97494361 -0.06125051 37.25841331 -0.06072426 C38.81347421 -0.06189108 40.36853658 -0.0662383 41.92357826 -0.07405663 C67.79493605 -0.19197398 89.90082272 5.88940987 108.66015625 24.26953125 C125.51171875 41.23174091 125.51171875 41.23174091 125.51171875 51.16796875 C121.92339743 52.55270128 118.33354785 53.93341902 114.74267578 55.31152344 C113.15491875 55.92104977 111.56737636 56.53113533 109.97998047 57.14160156 C107.24134645 58.19411959 104.50162123 59.24375766 101.76171875 60.29296875 C100.88749268 60.62941406 100.0132666 60.96585937 99.11254883 61.3125 C94.40017877 63.11396133 89.67300173 64.80541677 84.87939453 66.37695312 C80.16478671 67.95205411 75.49838949 69.6649356 70.82421875 71.35546875 C69.73786133 71.74766602 68.65150391 72.13986328 67.53222656 72.54394531 C64.19159834 73.75068779 60.85163608 74.95926034 57.51171875 76.16796875 C56.49062012 76.53680176 55.46952148 76.90563477 54.41748047 77.28564453 C51.53165545 78.3281826 48.64654449 79.37266911 45.76171875 80.41796875 C44.85526611 80.74563232 43.94881348 81.0732959 43.01489258 81.41088867 C37.00770554 83.59264752 31.0662981 85.89243012 25.16796875 88.35546875 C19.85150333 89.9816817 15.92173279 89.21583178 10.88671875 87.10546875 C5.24942359 84.82874545 -0.42615418 82.76833458 -6.17578125 80.79296875 C-12.83765234 78.4915492 -19.43261653 76.06892959 -25.98828125 73.48046875 C-32.75453428 70.8094636 -39.56076617 68.39231373 -46.48828125 66.16796875 C-52.53113543 64.21699427 -58.46012894 62.06895596 -64.36328125 59.73046875 C-70.37665717 57.36211036 -76.40105859 55.07888882 -82.51953125 52.9921875 C-84.48828125 52.16796875 -84.48828125 52.16796875 -86.48828125 50.16796875 C-84.4329309 36.07000227 -71.33911494 24.17479509 -60.7109375 16.04296875 C-53.09598304 10.64606143 -45.22514466 7.25043434 -36.48828125 4.16796875 C-35.55628906 3.83796875 -34.62429687 3.50796875 -33.6640625 3.16796875 C-22.73618641 -0.40031732 -11.3667721 0.00545525 0 0 Z " fill="#070707" transform="translate(230.48828125,203.83203125)"/>
<path d="M0 0 C0.7425 -0.020625 1.485 -0.04125 2.25 -0.0625 C7.12938828 -0.09698331 10.37815068 0.59971057 14.625 3.25 C18.78947531 7.41447531 21.45690057 12.55181245 21.7265625 18.484375 C21.33239104 23.92769523 19.82957569 28.79584134 16.625 33.25 C9.41539809 38.98825458 2.54360051 38.92310193 -6.375 38.25 C-11.50436761 37.10738058 -15.78321406 35.49236952 -19.9375 32.25 C-22.79755436 26.2811909 -24.16555909 19.34576959 -22.6875 12.8125 C-19.85850072 5.13378766 -19.85850072 5.13378766 -15.4375 2.5 C-10.23602678 0.37694971 -5.59385997 0.03844577 0 0 Z " fill="#161616" transform="translate(384.375,318.75)"/>
<path d="M0 0 C4.52673165 2.49057629 6.88160051 5.45893118 8.9375 10.1875 C10.53888861 16.85995253 9.7607736 22.27147292 6.6875 28.3125 C2.84389792 33.21640611 -2.28494712 35.32680756 -8.3125 36.3125 C-15.75851127 36.98765646 -22.10558137 37.05449884 -28.50390625 32.8515625 C-32.87589948 29.13111902 -34.40053746 25.09453945 -35.3125 19.5 C-35.75231666 12.80046711 -33.44737917 7.0671828 -29.375 1.8125 C-21.82523046 -3.67824148 -8.51740249 -3.51218433 0 0 Z " fill="#151515" transform="translate(129.3125,320.6875)"/>
<path d="M0 0 C0.66 0.33 1.32 0.66 2 1 C0.625 3.5 0.625 3.5 -1 6 C-1.66 6 -2.32 6 -3 6 C-3 6.66 -3 7.32 -3 8 C-5.48884559 10.1274887 -8.09890916 12.05895415 -10.71484375 14.02734375 C-13.2398513 15.8670808 -13.2398513 15.8670808 -14 19 C-14.66 19 -15.32 19 -16 19 C-14.55930366 14.54841018 -12.29108316 11.7853507 -9.125 8.375 C-8.26132813 7.43398437 -7.39765625 6.49296875 -6.5078125 5.5234375 C-4.4276574 3.43032194 -2.41772591 1.67554028 0 0 Z " fill="#7A7A7A" transform="translate(167,222)"/>
<path d="M0 0 C-2.69984449 2.69984449 -5.19873718 3.02170137 -8.875 4 C-13.67963786 5.22423907 -13.67963786 5.22423907 -18.1953125 7.1875 C-20.51819756 8.23330107 -21.61352543 7.69649245 -24 7 C-20.56835801 5.63064072 -17.12888119 4.28217537 -13.6875 2.9375 C-12.71103516 2.54755859 -11.73457031 2.15761719 -10.72851562 1.75585938 C-9.79072266 1.39169922 -8.85292969 1.02753906 -7.88671875 0.65234375 C-6.59060669 0.14175415 -6.59060669 0.14175415 -5.26831055 -0.37915039 C-3 -1 -3 -1 0 0 Z " fill="#B2B2B2" transform="translate(348,269)"/>
<path d="M0 0 C0.66 0.33 1.32 0.66 2 1 C0.90220176 2.15193623 -0.20349446 3.29634937 -1.3125 4.4375 C-1.92738281 5.07558594 -2.54226562 5.71367187 -3.17578125 6.37109375 C-5 8 -5 8 -8 9 C-6.82191948 5.6470016 -5.80593388 3.2447471 -3 1 C-2.01 0.67 -1.02 0.34 0 0 Z " fill="#717171" transform="translate(105,320)"/>
<path d="M0 0 C0.99 0.33 1.98 0.66 3 1 C2.34 1 1.68 1 1 1 C0.7525 1.61875 0.505 2.2375 0.25 2.875 C-1.20628639 5.35068687 -2.37812506 5.95125002 -5 7 C-3.75023244 3.34683329 -3.32901247 2.21934164 0 0 Z " fill="#8E8E8E" transform="translate(369,321)"/>
</svg>
