<?xml version="1.0" encoding="UTF-8"?>
<svg version="1.1" xmlns="http://www.w3.org/2000/svg" width="800" height="800">
<path d="M0 0 C11.19644401 9.27057441 18.98252451 20.26896236 24.1484375 33.8203125 C24.44482117 34.59079422 24.74120483 35.36127594 25.04656982 36.15510559 C29.28811803 47.26862953 33.26100409 58.48154776 37.25 69.6875 C37.67543091 70.88046692 38.10086182 72.07343384 38.53918457 73.30255127 C45.36880335 92.46122208 52.09555459 111.65482329 58.75 130.875 C59.16963013 132.08433197 59.58926025 133.29366394 60.02160645 134.53964233 C61.2002409 137.93927882 62.3744206 141.34041545 63.546875 144.7421875 C63.89899048 145.75717819 64.25110596 146.77216888 64.6138916 147.81791687 C64.93047729 148.74022598 65.24706299 149.6625351 65.57324219 150.61279297 C65.85045105 151.41651337 66.12765991 152.22023376 66.41326904 153.04830933 C67 155 67 155 67 157 C109.9 156.67 152.8 156.34 197 156 C190.07 137.52 183.14 119.04 176 100 C179.1087968 97.6684024 180.66627698 96.56831466 184.109375 95.39453125 C185.24052734 95.00297852 185.24052734 95.00297852 186.39453125 94.60351562 C187.17183594 94.34248047 187.94914062 94.08144531 188.75 93.8125 C189.54277344 93.53986328 190.33554687 93.26722656 191.15234375 92.98632812 C193.09936141 92.31777387 195.04939366 91.65801022 197 91 C200.39538452 99.01091139 203.6018399 107.07164259 206.64453125 115.22265625 C207.05918137 116.33056015 207.47383148 117.43846405 207.90104675 118.5799408 C208.76687319 120.89618215 209.63147019 123.21288343 210.49487305 125.5300293 C211.82143388 129.08645114 213.15570897 132.63991973 214.49023438 136.19335938 C215.33380455 138.45294914 216.17692017 140.71270866 217.01953125 142.97265625 C217.61940605 144.5663076 217.61940605 144.5663076 218.23139954 146.19215393 C218.59565536 147.17425339 218.95991119 148.15635284 219.33520508 149.16821289 C219.65765701 150.03136612 219.98010895 150.89451935 220.31233215 151.78382874 C221 154 221 154 221 157 C222.12535156 157.12955078 222.12535156 157.12955078 223.2734375 157.26171875 C235.62082497 158.95676313 244.10127479 163.23705504 251.65625 173.1796875 C257.84195508 182.42792304 259.90081164 193.17550016 258.58984375 204.1640625 C257.4920067 209.44240488 255.40022931 214.19954139 253 219 C335.17 219.495 335.17 219.495 419 220 C419 362.23 419 504.46 419 651 C402.5 651 386 651 369 651 C369 524.94 369 398.88 369 269 C255.15 269 141.3 269 24 269 C24 276.92 24 284.84 24 293 C25.6418074 292.99333817 27.28361481 292.98667633 28.97517395 292.97981262 C44.46783335 292.91892703 59.96045544 292.87381104 75.45320606 292.84456348 C83.41766494 292.82912679 91.3820342 292.80809881 99.34643555 292.77368164 C106.29217218 292.74368093 113.23784389 292.72440178 120.18364352 292.71773452 C123.85781472 292.71384023 127.53180024 292.70475576 131.20591164 292.68280983 C135.31810192 292.65844884 139.42997402 292.65803681 143.54223633 292.65942383 C145.34838661 292.64324509 145.34838661 292.64324509 147.19102478 292.6267395 C162.05685367 292.68079202 173.68726296 297.06032468 184.50512695 307.31976318 C191.54609134 314.88385627 195.33943676 324.62836678 198.75 334.234375 C199.1650177 335.37274811 199.5800354 336.51112122 200.00762939 337.68399048 C201.11844219 340.73609861 202.21931374 343.79156247 203.3160553 346.84874725 C204.47858457 350.08038566 205.65511126 353.30691514 206.83105469 356.53369141 C208.24945724 360.42753247 209.66730406 364.32156167 211.07977295 368.21755981 C214.73430402 378.2964711 218.46613429 388.34404993 222.25 398.375 C223.43836978 401.5322252 224.62551811 404.68990903 225.8125 407.84765625 C226.28336029 409.09986214 226.28336029 409.09986214 226.76373291 410.37736511 C233.03788763 427.07324821 239.25880094 443.78917542 245.48974609 460.5012207 C246.29578113 462.66304394 247.10181674 464.82486695 247.90785599 466.98668861 C248.44313262 468.42234838 248.97838806 469.85801605 249.51362228 471.29369164 C252.7857995 480.07043172 256.06308976 488.84522837 259.34851074 497.61701965 C261.11447168 502.33272121 262.87812339 507.04928458 264.64147949 511.76596069 C265.45421278 513.93796125 266.26806894 516.10954201 267.08312988 518.28067017 C268.20157764 521.26024562 269.31606062 524.24127627 270.4296875 527.22265625 C270.75039215 528.07377991 271.0710968 528.92490356 271.40151978 529.80181885 C277.21548328 545.41134137 279.67651226 559.01551626 273 575 C271.56207791 577.88065329 269.94085034 580.43489955 268 583 C267.55914063 583.60328125 267.11828125 584.2065625 266.6640625 584.828125 C259.78960359 593.56362528 250.29027295 597.56990902 240 601 C223.1725536 601.88119558 210.33118607 599.77001115 197.375 588.125 C193.94532457 584.42842998 191.47294491 580.59377628 189.25390625 576.09375 C188.91270248 575.40455475 188.57149872 574.7153595 188.21995544 574.00527954 C183.60858781 564.41860838 180.14651165 554.37772954 176.5625 544.375 C175.79028703 542.24253513 175.01699315 540.11046141 174.24267578 537.97875977 C173.0441936 534.67840735 171.84658039 531.37776161 170.65264893 528.07575989 C166.66064478 517.03541434 162.59317476 506.02341013 158.51486206 495.01470947 C157.03552129 491.021032 155.55851359 487.02649344 154.08146667 483.03196716 C152.7215405 479.35443646 151.36080801 475.67720447 150 472 C147.83478101 480.32721228 145.98832543 488.67844592 144.33618164 497.12133789 C143.95611028 499.04321297 143.57603657 500.96508759 143.19587409 502.88694465 C142.79284499 504.92709269 142.39123847 506.96751641 141.98997688 509.00801277 C141.14859596 513.28487483 140.30133241 517.56055887 139.45298767 521.83604431 C137.04312457 533.9850379 134.63821108 546.13499672 132.24536133 558.28735352 C130.91979606 565.01912557 129.5879318 571.74962007 128.24919981 578.47878641 C127.40623456 582.7177266 126.5708233 586.95805955 125.74115574 591.19962132 C125.09893564 594.47051767 124.44517393 597.73908835 123.79321289 601.00805664 C123.56918793 602.16525208 123.34516296 603.32244751 123.11434937 604.51470947 C120.0005293 619.97002781 114.86623469 633.18519454 102.04296875 643.0546875 C90.21614466 650.61535296 76.58012974 652.85987395 62.9375 649.875 C51.07095539 646.54135731 40.95874596 638.68382257 34.265625 628.3125 C24.37429863 609.22805852 29.8804845 588.99100525 34.01963544 569.04380035 C34.73906047 565.55763892 35.43823641 562.06741241 36.13987732 558.57763672 C37.47397362 551.95764065 38.8257552 545.34139003 40.18415445 538.72634315 C41.70338642 531.32364874 43.20244143 523.91691835 44.69986272 516.50978661 C47.87430239 500.8104155 51.08078941 485.11772971 54.29795074 469.42706299 C55.14244628 465.30464655 55.98397164 461.18162894 56.8248415 457.05847168 C57.49382714 453.77917642 58.1643899 450.50020577 58.83564568 447.22137451 C59.12529414 445.80566834 59.41444162 444.38985955 59.70303535 442.97393799 C60.08139862 441.11897733 60.46235605 439.26454635 60.84350586 437.41015625 C61.1472538 435.92721069 61.1472538 435.92721069 61.45713806 434.41430664 C62 432 62 432 63 429 C-14.88 429 -92.76 429 -173 429 C-173 502.26 -173 575.52 -173 651 C-189.5 651 -206 651 -223 651 C-223 487.98 -223 324.96 -223 157 C-206.5 157 -190 157 -173 157 C-173 230.26 -173 303.52 -173 379 C-145.775 378.505 -145.775 378.505 -118 378 C-122.455 373.05 -122.455 373.05 -127 368 C-128.64799437 365.2472196 -129.9970658 362.83306053 -131.25 359.9375 C-131.57516602 359.20837402 -131.90033203 358.47924805 -132.23535156 357.72802734 C-141.54186408 336.23617545 -144.62731178 312.29087159 -145 289 C-145.02046387 287.92927246 -145.04092773 286.85854492 -145.06201172 285.75537109 C-146.34658137 207.75757605 -136.54689705 117.79789297 -82 14 C-81.23945313 13.15308594 -80.47890625 12.30617187 -79.6953125 11.43359375 C-60.01313132 -9.70055162 -24.57864956 -17.56097503 0 0 Z " fill="#FFFFFF" transform="translate(302,143)"/>
<path d="M0 0 C3.51720589 2.82681153 6.78200966 5.83864629 10 9 C11.16208984 10.12535156 11.16208984 10.12535156 12.34765625 11.2734375 C27.78796377 27.21694543 32.58143197 47.69565347 32.26953125 69.3125 C31.69353654 86.38237278 24.51237342 103.36968949 13 116 C11.90945313 117.22783203 11.90945313 117.22783203 10.796875 118.48046875 C-2.50180549 132.65857812 -21.1498538 141.32101677 -40.5859375 142.28515625 C-64.18867191 142.962804 -84.46036926 135.71182695 -101.67578125 119.4765625 C-116.6921072 103.93614627 -124.59598055 83.3398587 -124.28295898 61.77758789 C-123.58119659 39.95891442 -114.11163707 20.3291265 -98.3125 5.375 C-70.68370486 -18.60390822 -30.10395167 -21.26121787 0 0 Z " fill="#FFFFFF" transform="translate(431,20)"/>
</svg>
